<svg width="34" height="34" viewBox="0 0 34 34" fill="none" xmlns="http://www.w3.org/2000/svg">
<rect x="0.5" y="0.5" width="33" height="33" rx="16.5" fill="#A7D129" stroke="#A7D129"/>
<g clip-path="url(#clip0_232_3632)">
<mask id="mask0_232_3632" style="mask-type:luminance" maskUnits="userSpaceOnUse" x="8" y="8" width="18" height="18">
<path d="M8 8H26V26H8V8Z" fill="white"/>
</mask>
<g mask="url(#mask0_232_3632)">
<mask id="mask1_232_3632" style="mask-type:luminance" maskUnits="userSpaceOnUse" x="8" y="8" width="18" height="18">
<path d="M8 8H26V26H8V8Z" fill="white"/>
</mask>
<g mask="url(#mask1_232_3632)">
<path d="M22.6101 19.4217C22.5389 19.1652 22.5962 18.8776 22.7822 18.5588C22.8011 18.5272 22.8196 18.498 22.8378 18.4712C22.8559 18.4444 22.8748 18.4181 22.8945 18.3923L23.3419 18.7332L22.8753 18.4192C23.1598 17.9963 23.3766 17.5412 23.5256 17.0537C23.6745 16.5663 23.7492 16.0678 23.7497 15.5581C23.752 14.8404 23.6098 14.1542 23.3229 13.4995C23.045 12.8654 22.6511 12.3032 22.1412 11.813C21.6297 11.3212 21.0414 10.9403 20.3764 10.6702C19.6865 10.3901 18.9629 10.25 18.2056 10.25C17.5448 10.25 16.9074 10.3578 16.2932 10.5735C15.7007 10.7816 15.16 11.0789 14.671 11.4656C14.1872 11.8481 13.7825 12.2953 13.4571 12.8073C13.1264 13.3274 12.8968 13.8846 12.7682 14.4787C12.7292 14.6572 12.7 14.837 12.6804 15.0179C12.6608 15.1989 12.651 15.3804 12.6509 15.5624C12.6509 16.2856 12.7907 16.9786 13.0704 17.6412C13.3423 18.2857 13.7268 18.8565 14.2238 19.3537C14.7242 19.8543 15.3003 20.2417 15.9521 20.516C16.6312 20.8017 17.3472 20.9446 18.1001 20.9446C18.3074 20.9446 18.5681 20.916 18.8821 20.859C19.1307 20.8139 19.3736 20.7589 19.6107 20.6939C19.8915 20.6168 20.1722 20.5251 20.453 20.4186C20.5375 20.3867 20.6239 20.3627 20.7121 20.3466C20.8003 20.3305 20.8892 20.3224 20.9788 20.3223C21.0762 20.3219 21.1732 20.3313 21.2697 20.3504C21.3663 20.3695 21.46 20.398 21.5508 20.4358L21.3345 20.9551L21.5224 20.4249L23.5317 21.1372L23.5471 21.1437C23.5431 21.142 23.539 21.1406 23.5348 21.1395C23.5306 21.1384 23.5263 21.1377 23.522 21.1373L23.4649 21.6969V21.1344C23.3873 21.1344 23.321 21.1618 23.2661 21.2167C23.2111 21.2717 23.1837 21.338 23.1837 21.4156H23.7462L23.1853 21.4584C23.1856 21.4623 23.1861 21.4662 23.1869 21.4701C23.1876 21.474 23.1885 21.4778 23.1897 21.4816L22.6106 19.4234L22.6101 19.4217ZM23.6935 19.1187L24.2676 21.1598C24.278 21.1945 24.2865 21.2297 24.2931 21.2653C24.2997 21.3009 24.3043 21.3368 24.3071 21.3729L24.3087 21.3943V21.4156C24.3087 21.6486 24.2263 21.8475 24.0615 22.0123C23.8968 22.177 23.6979 22.2594 23.4649 22.2594H23.4363L23.4079 22.2565C23.3564 22.2512 23.3055 22.2422 23.2554 22.2293C23.2052 22.2165 23.1563 22.1999 23.1086 22.1797L23.3278 21.6617L23.1399 22.1919L21.1322 21.4801L21.1181 21.4743C21.0965 21.4653 21.0742 21.4585 21.0512 21.4539C21.0282 21.4494 21.0045 21.4472 20.98 21.4473C20.958 21.4473 20.9361 21.4493 20.9144 21.4533C20.8927 21.4572 20.8719 21.4629 20.8519 21.4704C20.5379 21.5896 20.2234 21.6923 19.9083 21.7788C19.2017 21.9726 18.599 22.0695 18.1001 22.0695C17.1958 22.0695 16.3344 21.8973 15.5158 21.5529C14.7284 21.2216 14.0325 20.7537 13.4281 20.1491C12.8275 19.5483 12.3628 18.8581 12.0339 18.0786C11.6952 17.2761 11.5259 16.4372 11.5259 15.5618C11.526 15.3395 11.538 15.1179 11.5619 14.8969C11.5858 14.676 11.6214 14.4573 11.6687 14.2408C11.8255 13.5159 12.1052 12.8368 12.5077 12.2037C12.9013 11.5846 13.3898 11.0444 13.9732 10.5831C14.5606 10.1187 15.2097 9.76165 15.9204 9.51207C16.6553 9.25402 17.417 9.125 18.2056 9.125C19.1094 9.125 19.974 9.29262 20.7996 9.62786C21.5983 9.95218 22.3054 10.4102 22.9209 11.002C23.5382 11.5954 24.0156 12.2774 24.3533 13.048C24.7037 13.8477 24.8775 14.6848 24.8747 15.5591C24.8741 16.1805 24.783 16.7883 24.6014 17.3826C24.4198 17.9768 24.1555 18.5317 23.8086 19.0473L23.7993 19.0609L23.7894 19.0741C23.7824 19.0833 23.7756 19.0926 23.7692 19.1022C23.7627 19.1117 23.7576 19.1195 23.754 19.1256C23.73 19.1667 23.7136 19.2009 23.705 19.228C23.704 19.2309 23.7033 19.2339 23.7033 19.2339C23.7039 19.2309 23.7045 19.2269 23.7049 19.2219C23.7079 19.1911 23.7042 19.1573 23.694 19.1206L23.6935 19.1187Z" fill="white"/>
<path fill-rule="evenodd" clip-rule="evenodd" d="M10.6099 15.6648C10.3385 15.5137 9.99596 15.6112 9.84486 15.8827C9.32334 16.8196 9.085 17.8237 9.12984 18.8951C9.17468 19.9665 9.4961 20.9472 10.0941 21.8373L9.70205 23.8738C9.67262 24.0229 9.6835 24.17 9.7347 24.3151C9.7859 24.4602 9.87047 24.5822 9.9884 24.6811L9.99917 24.6898C10.0754 24.7505 10.1595 24.7968 10.2516 24.8286C10.3437 24.8603 10.4384 24.8758 10.5359 24.875C10.588 24.8752 10.6417 24.8695 10.697 24.8581C10.7479 24.8476 10.7973 24.8324 10.8453 24.8125L12.8118 24.0429L12.8272 24.0491C13.6147 24.356 14.3956 24.5094 15.17 24.5094C15.7134 24.51 16.2478 24.4398 16.773 24.2987C17.2982 24.1577 17.796 23.9508 18.2664 23.6779C18.5352 23.5221 18.6267 23.1779 18.4708 22.9091C18.315 22.6404 17.9707 22.5489 17.702 22.7048C17.3175 22.9278 16.9106 23.097 16.4813 23.2122C16.052 23.3275 15.6149 23.3849 15.17 23.3844C14.5391 23.3844 13.897 23.2576 13.2436 23.004C13.1117 22.9485 12.974 22.9196 12.8306 22.9172C12.683 22.9147 12.541 22.9404 12.4045 22.9942L10.9038 23.5815L11.2253 21.916C11.2547 21.7722 11.2368 21.6228 11.1715 21.4679C11.1397 21.3924 11.0918 21.3065 11.0279 21.2099C10.5479 20.4954 10.2898 19.7081 10.2539 18.8481C10.2179 17.988 10.4092 17.182 10.8278 16.4298C10.9789 16.1584 10.8814 15.8159 10.6099 15.6648Z" fill="white"/>
</g>
</g>
</g>
<defs>
<clipPath id="clip0_232_3632">
<rect width="18" height="18" fill="white" transform="translate(8 8)"/>
</clipPath>
</defs>
</svg>
