<svg width="22" height="22" viewBox="0 0 22 22" fill="none" xmlns="http://www.w3.org/2000/svg">
<path d="M14.2821 10.9999C14.2821 12.8149 12.8154 14.2816 11.0004 14.2816C9.18542 14.2816 7.71875 12.8149 7.71875 10.9999C7.71875 9.18493 9.18542 7.71826 11.0004 7.71826C12.8154 7.71826 14.2821 9.18493 14.2821 10.9999Z" stroke="#292D32" stroke-width="1.5" stroke-linecap="round" stroke-linejoin="round"/>
<path d="M10.9999 18.5808C14.2357 18.5808 17.2515 16.6741 19.3507 13.3741C20.1757 12.0816 20.1757 9.90914 19.3507 8.61664C17.2515 5.31664 14.2357 3.40997 10.9999 3.40997C7.76402 3.40997 4.74819 5.31664 2.64902 8.61664C1.82402 9.90914 1.82402 12.0816 2.64902 13.3741C4.74819 16.6741 7.76402 18.5808 10.9999 18.5808Z" stroke="#292D32" stroke-width="1.5" stroke-linecap="round" stroke-linejoin="round"/>
</svg>
