<svg width="18" height="18" viewBox="0 0 18 18" fill="none" xmlns="http://www.w3.org/2000/svg">
<g clip-path="url(#clip0_244_3184)">
<mask id="mask0_244_3184" style="mask-type:luminance" maskUnits="userSpaceOnUse" x="0" y="0" width="18" height="18">
<path d="M0 0H18V18H0V0Z" fill="white"/>
</mask>
<g mask="url(#mask0_244_3184)">
<mask id="mask1_244_3184" style="mask-type:luminance" maskUnits="userSpaceOnUse" x="0" y="0" width="18" height="18">
<path d="M0 0H18V18H0V0Z" fill="white"/>
</mask>
<g mask="url(#mask1_244_3184)">
<path d="M14.6105 11.4217C14.5393 11.1652 14.5967 10.8776 14.7827 10.5588C14.8016 10.5272 14.8201 10.498 14.8382 10.4712C14.8564 10.4444 14.8753 10.4181 14.8949 10.3923L15.3424 10.7332L14.8757 10.4192C15.1603 9.9963 15.3771 9.54117 15.5261 9.05375C15.675 8.56632 15.7497 8.06777 15.7502 7.55808C15.7525 6.84038 15.6102 6.15419 15.3233 5.49954C15.0455 4.86538 14.6516 4.30321 14.1417 3.81301C13.6302 3.32119 13.0419 2.94025 12.3769 2.67021C11.687 2.39007 10.9634 2.25 10.2061 2.25C9.54533 2.25 8.90787 2.35784 8.29365 2.57353C7.70122 2.78156 7.16049 3.0789 6.67148 3.46555C6.18766 3.8481 5.78303 4.29534 5.45757 4.80727C5.12689 5.32744 4.89727 5.88459 4.76872 6.47872C4.72974 6.65725 4.70046 6.83699 4.68088 7.01795C4.6613 7.1989 4.65146 7.38039 4.65137 7.56241C4.65137 8.28561 4.79119 8.97856 5.07085 9.64125C5.34279 10.2857 5.72727 10.8565 6.22429 11.3537C6.72465 11.8543 7.30075 12.2417 7.9526 12.516C8.63166 12.8017 9.34765 12.9446 10.1006 12.9446C10.3079 12.9446 10.5686 12.916 10.8826 12.859C11.1312 12.8139 11.3741 12.7589 11.6111 12.6939C11.8919 12.6168 12.1727 12.5251 12.4535 12.4186C12.538 12.3867 12.6244 12.3627 12.7126 12.3466C12.8007 12.3305 12.8896 12.3224 12.9793 12.3223C13.0767 12.3219 13.1737 12.3313 13.2702 12.3504C13.3668 12.3695 13.4605 12.398 13.5513 12.4358L13.3349 12.9551L13.5229 12.4249L15.5321 13.1372L15.5476 13.1437C15.5436 13.142 15.5395 13.1406 15.5353 13.1395C15.531 13.1384 15.5268 13.1377 15.5225 13.1373L15.4654 13.6969V13.1344C15.3877 13.1344 15.3215 13.1618 15.2666 13.2167C15.2116 13.2717 15.1841 13.338 15.1841 13.4156H15.7466L15.1858 13.4584C15.1861 13.4623 15.1866 13.4662 15.1874 13.4701C15.1881 13.474 15.189 13.4778 15.1901 13.4816L14.6111 11.4234L14.6105 11.4217ZM15.694 11.1187L16.2681 13.1598C16.2785 13.1945 16.2869 13.2297 16.2935 13.2653C16.3001 13.3009 16.3048 13.3368 16.3076 13.3729L16.3091 13.3943V13.4156C16.3091 13.6486 16.2268 13.8475 16.062 14.0123C15.8973 14.177 15.6984 14.2594 15.4654 14.2594H15.4368L15.4084 14.2565C15.3568 14.2512 15.306 14.2422 15.2558 14.2293C15.2057 14.2165 15.1568 14.1999 15.1091 14.1797L15.3283 13.6617L15.1403 14.1919L13.1327 13.4801L13.1186 13.4743C13.097 13.4653 13.0747 13.4585 13.0517 13.4539C13.0287 13.4494 13.0049 13.4472 12.9805 13.4473C12.9584 13.4473 12.9366 13.4493 12.9149 13.4533C12.8932 13.4572 12.8723 13.4629 12.8524 13.4704C12.5384 13.5896 12.2238 13.6923 11.9087 13.7788C11.2022 13.9726 10.5995 14.0695 10.1006 14.0695C9.1963 14.0695 8.33488 13.8973 7.51631 13.5529C6.72888 13.2216 6.03299 12.7537 5.42864 12.1491C4.82803 11.5483 4.36327 10.8581 4.03435 10.0786C3.6957 9.27612 3.52637 8.43718 3.52637 7.56181C3.52649 7.33954 3.5385 7.11792 3.5624 6.89694C3.58631 6.67596 3.6219 6.45726 3.66917 6.24082C3.82601 5.51587 4.10569 4.83684 4.50818 4.20371C4.90177 3.5846 5.39029 3.04439 5.97373 2.58308C6.5611 2.11865 7.21017 1.76165 7.92092 1.51207C8.65577 1.25402 9.41748 1.125 10.2061 1.125C11.1098 1.125 11.9745 1.29262 12.8001 1.62786C13.5988 1.95218 14.3059 2.41024 14.9214 3.00203C15.5387 3.59545 16.0161 4.27743 16.3538 5.048C16.7042 5.84773 16.878 6.68477 16.8752 7.55911C16.8746 8.1805 16.7835 8.78833 16.6019 9.38258C16.4203 9.97683 16.156 10.5317 15.809 11.0473L15.7998 11.0609L15.7898 11.0741C15.7828 11.0833 15.7761 11.0926 15.7697 11.1022C15.7632 11.1117 15.7581 11.1195 15.7544 11.1256C15.7304 11.1667 15.7141 11.2009 15.7055 11.228C15.7045 11.2309 15.7037 11.2339 15.7037 11.2339C15.7044 11.2309 15.7049 11.2269 15.7054 11.2219C15.7083 11.1911 15.7047 11.1573 15.6945 11.1206L15.694 11.1187Z" fill="#A7D129"/>
<path fill-rule="evenodd" clip-rule="evenodd" d="M2.61018 7.66474C2.33874 7.51365 1.9962 7.61121 1.84511 7.88265C1.32358 8.81958 1.08524 9.82372 1.13008 10.8951C1.17492 11.9664 1.49634 12.9472 2.09434 13.8372L1.70229 15.8737C1.67286 16.0229 1.68374 16.17 1.73495 16.3151C1.78615 16.4602 1.87071 16.5822 1.98865 16.681L1.99942 16.6898C2.07561 16.7505 2.15976 16.7968 2.25186 16.8286C2.34394 16.8603 2.43868 16.8758 2.5361 16.875C2.58828 16.8751 2.64198 16.8695 2.6972 16.8581C2.74814 16.8476 2.79758 16.8324 2.84554 16.8125L4.81204 16.0429L4.82745 16.0491C5.61492 16.3559 6.39585 16.5094 7.17023 16.5094C7.71366 16.51 8.24799 16.4397 8.77323 16.2987C9.29847 16.1577 9.79629 15.9508 10.2667 15.6779C10.5354 15.522 10.6269 15.1778 10.4711 14.9091C10.3152 14.6404 9.97097 14.5489 9.70224 14.7048C9.31775 14.9278 8.91085 15.0969 8.48154 15.2122C8.05224 15.3274 7.61514 15.3848 7.17023 15.3844C6.53937 15.3844 5.89724 15.2576 5.24386 15.004C5.11191 14.9485 4.97423 14.9195 4.83082 14.9171C4.68324 14.9147 4.54123 14.9403 4.40479 14.9941L2.90404 15.5815L3.22552 13.9159C3.25498 13.7722 3.23705 13.6228 3.17173 13.4678C3.13995 13.3924 3.09209 13.3064 3.02815 13.2098C2.54811 12.4953 2.29009 11.7081 2.2541 10.848C2.2181 9.988 2.40943 9.18193 2.82808 8.42981C2.97918 8.15837 2.88161 7.81583 2.61018 7.66474Z" fill="#A7D129"/>
</g>
</g>
</g>
<defs>
<clipPath id="clip0_244_3184">
<rect width="18" height="18" fill="white"/>
</clipPath>
</defs>
</svg>
