<svg width="22" height="22" viewBox="0 0 22 22" fill="none" xmlns="http://www.w3.org/2000/svg">
<g clip-path="url(#clip0_230_3111)">
<mask id="mask0_230_3111" style="mask-type:luminance" maskUnits="userSpaceOnUse" x="0" y="0" width="22" height="22">
<path d="M0 0H22V22H0V0Z" fill="white"/>
</mask>
<g mask="url(#mask0_230_3111)">
<mask id="mask1_230_3111" style="mask-type:luminance" maskUnits="userSpaceOnUse" x="0" y="0" width="22" height="22">
<path d="M0 0H22V22H0V0Z" fill="white"/>
</mask>
<g mask="url(#mask1_230_3111)">
<path d="M17.8569 13.9598C17.7699 13.6464 17.84 13.2948 18.0673 12.9052C18.0904 12.8666 18.113 12.8309 18.1352 12.7981C18.1574 12.7654 18.1805 12.7332 18.2045 12.7017L18.7514 13.1183L18.181 12.7345C18.5288 12.2177 18.7938 11.6614 18.9759 11.0657C19.1579 10.4699 19.2492 9.8606 19.2498 9.23765C19.2526 8.36046 19.0788 7.52179 18.7281 6.72166C18.3885 5.94658 17.9071 5.25948 17.2839 4.66034C16.6587 4.05923 15.9397 3.59365 15.1269 3.26359C14.2837 2.9212 13.3992 2.75 12.4736 2.75C11.6661 2.75 10.887 2.88181 10.1363 3.14542C9.41216 3.39969 8.75128 3.76311 8.1536 4.23568C7.56227 4.70323 7.06771 5.24986 6.66993 5.87556C6.26576 6.51132 5.98512 7.19227 5.82801 7.91843C5.78036 8.13664 5.74457 8.35632 5.72064 8.57749C5.69671 8.79866 5.68469 9.02048 5.68457 9.24294C5.68457 10.1269 5.85547 10.9738 6.19727 11.7838C6.52965 12.5714 6.99957 13.2691 7.60703 13.8768C8.21858 14.4886 8.92271 14.9621 9.71942 15.2973C10.5494 15.6465 11.4245 15.8211 12.3447 15.8211C12.5981 15.8211 12.9167 15.7863 13.3005 15.7166C13.6044 15.6615 13.9012 15.5942 14.191 15.5148C14.5342 15.4206 14.8773 15.3084 15.2205 15.1783C15.3238 15.1393 15.4294 15.11 15.5372 15.0903C15.6449 15.0706 15.7536 15.0607 15.8631 15.0606C15.9822 15.0601 16.1007 15.0715 16.2187 15.0949C16.3367 15.1183 16.4512 15.1531 16.5623 15.1993L16.2978 15.834L16.5275 15.186L18.9833 16.0565L19.0022 16.0646C18.9973 16.0625 18.9923 16.0608 18.9871 16.0595C18.982 16.0581 18.9767 16.0572 18.9715 16.0567L18.9017 16.7406V16.0531C18.8068 16.0531 18.7258 16.0867 18.6587 16.1538C18.5915 16.2209 18.558 16.302 18.558 16.3969H19.2455L18.56 16.4491C18.5603 16.454 18.561 16.4587 18.5619 16.4634C18.5628 16.4682 18.5639 16.4729 18.5653 16.4775L17.8575 13.9619L17.8569 13.9598ZM19.1811 13.5896L19.8828 16.0842C19.8955 16.1266 19.9058 16.1696 19.9139 16.2131C19.922 16.2567 19.9277 16.3005 19.931 16.3446L19.933 16.3708V16.3969C19.933 16.6817 19.8323 16.9247 19.6309 17.1261C19.4296 17.3274 19.1865 17.4281 18.9017 17.4281H18.8668L18.832 17.4246C18.769 17.4181 18.7069 17.4071 18.6456 17.3914C18.5843 17.3757 18.5245 17.3555 18.4662 17.3308L18.7341 16.6976L18.5044 17.3456L16.0506 16.4757L16.0334 16.4686C16.007 16.4576 15.9797 16.4493 15.9516 16.4437C15.9235 16.4382 15.8945 16.4354 15.8646 16.4356C15.8377 16.4356 15.8109 16.438 15.7844 16.4429C15.7579 16.4477 15.7324 16.4547 15.708 16.4639C15.3243 16.6095 14.9398 16.7351 14.5547 16.8407C13.6912 17.0777 12.9545 17.1961 12.3447 17.1961C11.2395 17.1961 10.1866 16.9857 9.18617 16.5647C8.22375 16.1598 7.37322 15.5879 6.63457 14.8489C5.90049 14.1145 5.33245 13.271 4.93044 12.3184C4.51653 11.3375 4.30957 10.3121 4.30957 9.24221C4.30971 8.97055 4.3244 8.69968 4.35362 8.42959C4.38284 8.15951 4.42633 7.8922 4.4841 7.62767C4.67581 6.74162 5.01763 5.91169 5.50957 5.13787C5.99062 4.38118 6.5877 3.72092 7.30079 3.15709C8.01869 2.58946 8.81199 2.15313 9.68069 1.84808C10.5788 1.53269 11.5098 1.375 12.4736 1.375C13.5783 1.375 14.6351 1.57987 15.6442 1.98961C16.6203 2.386 17.4846 2.94584 18.2369 3.66915C18.9913 4.39444 19.5748 5.22798 19.9875 6.16977C20.4158 7.14723 20.6283 8.17027 20.6248 9.23891C20.6241 9.99839 20.5128 10.7413 20.2907 11.4676C20.0688 12.1939 19.7458 12.8721 19.3217 13.5022L19.3105 13.5189L19.2983 13.535C19.2897 13.5462 19.2815 13.5577 19.2736 13.5693C19.2657 13.581 19.2595 13.5905 19.255 13.5979C19.2257 13.6482 19.2057 13.6899 19.1951 13.7231C19.194 13.7266 19.193 13.7304 19.193 13.7304C19.1938 13.7267 19.1945 13.7218 19.195 13.7157C19.1987 13.678 19.1942 13.6367 19.1818 13.5918L19.1811 13.5896Z" fill="white"/>
<path fill-rule="evenodd" clip-rule="evenodd" d="M3.19003 9.36792C2.85827 9.18325 2.43961 9.3025 2.25494 9.63426C1.61752 10.7794 1.32621 12.0067 1.38102 13.3161C1.43583 14.6256 1.82867 15.8242 2.55956 16.9121L2.08039 19.4011C2.04442 19.5834 2.05772 19.7632 2.1203 19.9406C2.18288 20.1179 2.28624 20.267 2.43038 20.3878L2.44354 20.3986C2.53667 20.4727 2.63952 20.5293 2.75208 20.5681C2.86462 20.6069 2.98042 20.6259 3.09949 20.6249C3.16327 20.6251 3.2289 20.6182 3.29639 20.6043C3.35864 20.5914 3.41908 20.5728 3.4777 20.5485L5.88119 19.6078L5.90003 19.6154C6.86249 19.9905 7.81696 20.178 8.76343 20.178C9.42762 20.1787 10.0807 20.0929 10.7226 19.9205C11.3646 19.7482 11.9731 19.4953 12.548 19.1618C12.8764 18.9713 12.9883 18.5506 12.7978 18.2222C12.6073 17.8937 12.1865 17.7819 11.8581 17.9724C11.3882 18.245 10.8908 18.4517 10.3661 18.5926C9.84144 18.7334 9.3072 18.8036 8.76343 18.803C7.99237 18.803 7.20755 18.648 6.40897 18.3381C6.2477 18.2703 6.07942 18.2349 5.90414 18.232C5.72377 18.229 5.5502 18.2603 5.38344 18.3261L3.5492 19.044L3.94212 17.0083C3.97812 16.8325 3.95621 16.65 3.87637 16.4606C3.83753 16.3684 3.77903 16.2633 3.70089 16.1453C3.11417 15.272 2.79881 14.3098 2.75482 13.2586C2.71082 12.2075 2.94467 11.2223 3.45636 10.303C3.64103 9.97125 3.52178 9.55259 3.19003 9.36792Z" fill="white"/>
</g>
</g>
</g>
<defs>
<clipPath id="clip0_230_3111">
<rect width="22" height="22" fill="white"/>
</clipPath>
</defs>
</svg>
