<svg width="42" height="42" viewBox="0 0 42 42" fill="none" xmlns="http://www.w3.org/2000/svg">
<path d="M0 9C0 5.68629 2.68629 3 6 3H36C39.3138 3 42 5.68629 42 9V36C42 39.3138 39.3138 42 36 42H6C2.68629 42 0 39.3138 0 36V9ZM6 6C4.34314 6 3 7.34314 3 9V36C3 37.6568 4.34314 39 6 39H36C37.6568 39 39 37.6568 39 36V9C39 7.34314 37.6568 6 36 6H6Z" fill="#04764E"/>
<path d="M24.75 16.5C25.9926 16.5 27 17.5074 27 18.75C27 19.9926 25.9926 21 24.75 21C23.5074 21 22.5 19.9926 22.5 18.75C22.5 17.5074 23.5074 16.5 24.75 16.5Z" fill="#04764E"/>
<path d="M32.25 16.5C33.4926 16.5 34.5 17.5074 34.5 18.75C34.5 19.9926 33.4926 21 32.25 21C31.0074 21 30 19.9926 30 18.75C30 17.5074 31.0074 16.5 32.25 16.5Z" fill="#04764E"/>
<path d="M24.75 24C25.9926 24 27 25.0074 27 26.25C27 27.4926 25.9926 28.5 24.75 28.5C23.5074 28.5 22.5 27.4926 22.5 26.25C22.5 25.0074 23.5074 24 24.75 24Z" fill="#04764E"/>
<path d="M32.25 24C33.4926 24 34.5 25.0074 34.5 26.25C34.5 27.4926 33.4926 28.5 32.25 28.5C31.0074 28.5 30 27.4926 30 26.25C30 25.0074 31.0074 24 32.25 24Z" fill="#04764E"/>
<path d="M9.75 24C10.9926 24 12 25.0074 12 26.25C12 27.4926 10.9926 28.5 9.75 28.5C8.50736 28.5 7.5 27.4926 7.5 26.25C7.5 25.0074 8.50736 24 9.75 24Z" fill="#04764E"/>
<path d="M17.25 24C18.4926 24 19.5 25.0074 19.5 26.25C19.5 27.4926 18.4926 28.5 17.25 28.5C16.0074 28.5 15 27.4926 15 26.25C15 25.0074 16.0074 24 17.25 24Z" fill="#04764E"/>
<path d="M9.75 31.5C10.9926 31.5 12 32.5074 12 33.75C12 34.9926 10.9926 36 9.75 36C8.50736 36 7.5 34.9926 7.5 33.75C7.5 32.5074 8.50736 31.5 9.75 31.5Z" fill="#04764E"/>
<path d="M17.25 31.5C18.4926 31.5 19.5 32.5074 19.5 33.75C19.5 34.9926 18.4926 36 17.25 36C16.0074 36 15 34.9926 15 33.75C15 32.5074 16.0074 31.5 17.25 31.5Z" fill="#04764E"/>
<path d="M24.75 31.5C25.9926 31.5 27 32.5074 27 33.75C27 34.9926 25.9926 36 24.75 36C23.5074 36 22.5 34.9926 22.5 33.75C22.5 32.5074 23.5074 31.5 24.75 31.5Z" fill="#04764E"/>
<path fill-rule="evenodd" clip-rule="evenodd" d="M9 0C8.17158 0 7.5 0.67158 7.5 1.5V4.5C7.5 5.32842 8.17158 6 9 6C9.82842 6 10.5 5.32842 10.5 4.5V1.5C10.5 0.67158 9.82842 0 9 0ZM33 0C32.1716 0 31.5 0.67158 31.5 1.5V4.5C31.5 5.32842 32.1716 6 33 6C33.8284 6 34.5 5.32842 34.5 4.5V1.5C34.5 0.67158 33.8284 0 33 0Z" fill="#04764E"/>
<path d="M40.5 13.5H1.5V10.5H40.5V13.5Z" fill="#04764E"/>
</svg>
