<svg width="28" height="28" viewBox="0 0 28 28" fill="none" xmlns="http://www.w3.org/2000/svg">
<circle cx="14" cy="14" r="14" fill="#FFD2D2"/>
<path d="M20.7498 10.1726C20.7348 10.1726 20.7123 10.1726 20.6898 10.1726C16.7223 9.7751 12.7623 9.6251 8.83975 10.0226L7.30975 10.1726C6.99475 10.2026 6.71725 9.9776 6.68725 9.6626C6.65725 9.3476 6.88225 9.0776 7.18975 9.0476L8.71975 8.8976C12.7098 8.4926 16.7523 8.6501 20.8023 9.0476C21.1098 9.0776 21.3348 9.3551 21.3048 9.6626C21.2823 9.9551 21.0348 10.1726 20.7498 10.1726Z" fill="#ED0000"/>
<path d="M11.3746 9.415C11.3446 9.415 11.3146 9.415 11.2771 9.4075C10.9771 9.355 10.7671 9.0625 10.8196 8.7625L10.9846 7.78C11.1046 7.06 11.2696 6.0625 13.0171 6.0625H14.9821C16.7371 6.0625 16.9021 7.0975 17.0146 7.7875L17.1796 8.7625C17.2321 9.07 17.0221 9.3625 16.7221 9.4075C16.4146 9.46 16.1221 9.25 16.0771 8.95L15.9121 7.975C15.8071 7.3225 15.7846 7.195 14.9896 7.195H13.0246C12.2296 7.195 12.2146 7.3 12.1021 7.9675L11.9296 8.9425C11.8846 9.22 11.6446 9.415 11.3746 9.415Z" fill="#ED0000"/>
<path d="M16.4078 22.1874H11.5928C8.97529 22.1874 8.87029 20.7399 8.78779 19.5699L8.30029 12.0174C8.27779 11.7099 8.51779 11.4399 8.82529 11.4174C9.14029 11.4024 9.40279 11.6349 9.42529 11.9424L9.91279 19.4949C9.99529 20.6349 10.0253 21.0624 11.5928 21.0624H16.4078C17.9828 21.0624 18.0128 20.6349 18.0878 19.4949L18.5753 11.9424C18.5978 11.6349 18.8678 11.4024 19.1753 11.4174C19.4828 11.4399 19.7228 11.7024 19.7003 12.0174L19.2128 19.5699C19.1303 20.7399 19.0253 22.1874 16.4078 22.1874Z" fill="#ED0000"/>
<path d="M15.2446 18.0625H12.7471C12.4396 18.0625 12.1846 17.8075 12.1846 17.5C12.1846 17.1925 12.4396 16.9375 12.7471 16.9375H15.2446C15.5521 16.9375 15.8071 17.1925 15.8071 17.5C15.8071 17.8075 15.5521 18.0625 15.2446 18.0625Z" fill="#ED0000"/>
<path d="M15.875 15.0625H12.125C11.8175 15.0625 11.5625 14.8075 11.5625 14.5C11.5625 14.1925 11.8175 13.9375 12.125 13.9375H15.875C16.1825 13.9375 16.4375 14.1925 16.4375 14.5C16.4375 14.8075 16.1825 15.0625 15.875 15.0625Z" fill="#ED0000"/>
</svg>
