<svg width="42" height="42" viewBox="0 0 42 42" fill="none" xmlns="http://www.w3.org/2000/svg">
<path d="M0 8.99994C0 5.68623 2.68629 2.99994 6 2.99994H36C39.3138 2.99994 42 5.68623 42 8.99994V35.9999C42 39.3137 39.3138 41.9999 36 41.9999H6C2.68629 41.9999 0 39.3137 0 35.9999V8.99994ZM6 5.99994C4.34314 5.99994 3 7.34308 3 8.99994V35.9999C3 37.6567 4.34314 38.9999 6 38.9999H36C37.6568 38.9999 39 37.6567 39 35.9999V8.99994C39 7.34308 37.6568 5.99994 36 5.99994H6Z" fill="#FBB040"/>
<path fill-rule="evenodd" clip-rule="evenodd" d="M9 -6.10352e-05C8.17158 -6.10352e-05 7.5 0.671519 7.5 1.49994V4.49994C7.5 5.32836 8.17158 5.99994 9 5.99994C9.82842 5.99994 10.5 5.32836 10.5 4.49994V1.49994C10.5 0.671519 9.82842 -6.10352e-05 9 -6.10352e-05ZM33 -6.10352e-05C32.1716 -6.10352e-05 31.5 0.671519 31.5 1.49994V4.49994C31.5 5.32836 32.1716 5.99994 33 5.99994C33.8284 5.99994 34.5 5.32836 34.5 4.49994V1.49994C34.5 0.671519 33.8284 -6.10352e-05 33 -6.10352e-05Z" fill="#FBB040"/>
<path d="M40.5 13.4999H1.5V10.4999H40.5V13.4999Z" fill="#FBB040"/>
<path d="M21.9122 18.265L24.0851 23.2878L29.5934 23.7753C29.8395 23.7941 30.0176 24.0049 29.9986 24.2493C29.985 24.3662 29.9347 24.4669 29.845 24.5421L25.6774 28.1373L26.9093 33.4649C26.9664 33.7013 26.8141 33.9309 26.5748 33.9874C26.4538 34.0129 26.3273 33.9874 26.2335 33.9269L21.4962 31.1308L16.7452 33.9377C16.6956 33.9672 16.6406 33.9867 16.5833 33.9952C16.526 34.0037 16.4676 34.0009 16.4114 33.9871C16.3552 33.9732 16.3023 33.9486 16.2558 33.9145C16.2092 33.8804 16.1699 33.8377 16.1402 33.7886C16.0762 33.6879 16.0626 33.5697 16.0885 33.4649L17.3204 28.1373L13.1501 24.5421C12.9679 24.385 12.9488 24.1056 13.1079 23.9257C13.195 23.8317 13.3092 23.7874 13.4234 23.7806L18.9195 23.2945L21.091 18.265C21.1861 18.0407 21.4445 17.9413 21.6716 18.0353C21.7858 18.0796 21.8687 18.1669 21.9122 18.265Z" fill="#FBB040"/>
</svg>
