<svg width="27" height="28" viewBox="0 0 27 28" fill="none" xmlns="http://www.w3.org/2000/svg">
<path fill-rule="evenodd" clip-rule="evenodd" d="M13.5006 23.7089C13.7872 23.7089 14.0194 23.9305 14.0194 24.2041C14.0194 24.4776 13.7872 24.6992 13.5006 24.6992C13.2139 24.6992 12.9818 24.4776 12.9818 24.2041C12.9818 23.9305 13.2139 23.7089 13.5006 23.7089ZM18.8278 10.0752L18.5589 8.21885C16.7555 7.47641 15.0157 7.17057 13.3315 7.20503C11.6564 7.23896 10.029 7.611 8.44337 8.22377L8.17395 10.0719C9.58529 9.33935 11.5395 8.97169 13.4908 8.97169C15.4404 8.97169 17.401 9.3388 18.8278 10.0752ZM13.5006 3.31829C14.2154 3.31829 14.795 3.87197 14.795 4.55423C14.795 5.23649 14.2154 5.79018 13.5006 5.79018C12.7852 5.79018 12.2056 5.23649 12.2056 4.55423C12.2056 3.87197 12.7852 3.31829 13.5006 3.31829ZM13.6427 0C14.0492 0 14.3817 0.31733 14.3817 0.705239V0.943783C15.6159 1.11449 16.7343 1.65942 17.5838 2.45329C18.5893 3.39434 19.2193 4.685 19.2193 6.12009L19.1694 7.96881L19.6555 11.3298L19.4738 11.2078C19.4285 11.3943 19.3706 11.5678 19.3122 11.7095L19.3104 11.7155C19.1929 12.0016 19.0359 12.2621 18.853 12.4541C18.6999 12.61 18.528 12.7222 18.3417 12.766C18.3055 12.8759 18.266 12.9903 18.2368 13.1024C18.0292 13.7705 17.8659 14.2968 17.4336 14.8193C17.3396 14.9331 17.2387 15.0431 17.1321 15.147C17.0582 15.2214 16.9831 15.2915 16.9051 15.3577C16.9154 15.4605 16.9166 16.2117 16.9154 16.6615C17.3459 16.7331 17.6916 16.7862 18.0344 16.8393C21.6258 17.3913 25.0332 17.9155 25.9435 22.2082L26.9948 27.6389C27.0032 27.6829 27.0013 27.7281 26.9894 27.7714C26.9774 27.8146 26.9557 27.8548 26.9257 27.8891C26.8957 27.9235 26.8581 27.9511 26.8157 27.9701C26.7733 27.989 26.727 27.9989 26.6801 27.9989L20.1353 27.9995L20.113 28L20.0901 27.9995L6.86809 28H0.321019C0.143885 28 0 27.8627 0 27.6936C0 27.6684 0.00343949 27.6444 0.00917197 27.6214L0.787643 23.0918C1.83382 18.0107 4.56478 17.5029 8.58439 16.7561C9.04873 16.6697 9.53025 16.5799 10.0055 16.4847C10.0336 16.4787 10.0617 16.4771 10.0892 16.4787V15.3637L10.092 15.2143C9.69363 14.8707 9.36688 14.4139 9.1479 13.9488C8.99484 13.6244 8.87331 13.2742 8.73229 12.8781L8.65949 12.6719C8.49955 12.6522 8.35108 12.5816 8.21694 12.4776C8.04898 12.3458 7.90452 12.1537 7.78701 11.9316C7.69529 11.7593 7.59554 11.4988 7.52675 11.2111L7.34388 11.3358L7.83229 7.97757L7.72338 6.34551C7.71627 6.24279 7.71264 6.13987 7.71248 6.03693C7.71248 4.65217 8.33732 3.40856 9.3256 2.48995C10.264 1.61784 11.532 1.03898 12.9032 0.912597V0.705239C12.9032 0.31733 13.2363 0 13.6427 0ZM16.8231 17.2671C16.5709 18.0019 15.9581 18.5129 15.1962 18.8062C14.6843 19.0026 14.1031 19.0994 13.5235 19.0972C12.9434 19.0951 12.3627 18.9938 11.8519 18.7963C11.0213 18.4741 10.3672 17.8991 10.166 17.0751C10.1562 17.0784 10.1465 17.0806 10.1362 17.0828C9.75497 17.1593 9.39611 17.2277 9.05045 17.2923C9.07166 18.6256 9.2379 19.6537 9.85471 20.5893C10.3626 21.359 11.1812 22.084 12.4796 22.8844C12.7674 22.688 13.1199 22.5726 13.5006 22.5726C13.8525 22.5726 14.181 22.6721 14.4568 22.8439C15.4078 22.2399 16.1318 21.6282 16.6678 20.9203C17.3608 20.0044 17.7512 18.9107 17.9249 17.4406C17.5322 17.3798 17.1373 17.3197 16.8231 17.2671ZM18.5406 7.56613L18.5773 6.23937V6.12009C18.5773 4.85624 18.0218 3.71878 17.135 2.8888C16.2441 2.05608 15.0208 1.53194 13.6886 1.49911L13.4696 1.49856C13.3515 1.49856 13.2392 1.50185 13.1348 1.50841C11.8456 1.58665 10.6475 2.11407 9.77217 2.92819C8.90312 3.73519 8.35395 4.82561 8.35395 6.03693C8.35395 6.13268 8.35682 6.2224 8.36255 6.30721L8.44796 7.58091C10.0238 6.99713 11.6444 6.64478 13.3194 6.61086C15.0071 6.57639 16.7452 6.86527 18.5406 7.56613ZM8.06388 10.8478C8.13325 11.1607 8.26624 11.4857 8.35509 11.6575C8.43478 11.8074 8.52478 11.9316 8.61936 12.0055C8.79134 12.1357 8.84809 11.9896 9.0321 12.0837C9.18974 12.1658 9.22529 12.3677 9.27975 12.5181L9.34452 12.702C9.47064 13.062 9.58586 13.3826 9.72 13.6725C9.99917 14.2667 10.3724 14.6913 10.9112 15.0836C12.5215 16.2506 14.6528 16.3004 16.2533 15.0874C16.5032 14.8992 16.7314 14.6853 16.9326 14.4407C17.1092 14.2312 17.2347 14.0068 17.3373 13.7606C17.4439 13.5084 17.5305 13.2365 17.6245 12.9301C17.679 12.7545 17.734 12.5778 17.7925 12.4016C17.8825 12.0678 18.1553 12.2916 18.3921 12.0438C18.5113 11.9136 18.6248 11.7133 18.7166 11.4895C18.7527 11.4015 18.8696 11.129 18.9453 10.8543C17.609 10.0063 15.5517 9.58391 13.4908 9.58391C11.4283 9.58391 9.38006 10.0068 8.06388 10.8478ZM10.7215 16.604C10.7387 16.702 10.7501 16.6959 10.7564 16.7512C10.8447 17.4592 11.3853 17.9549 12.0927 18.229C12.5301 18.3986 13.0282 18.485 13.5258 18.4872C14.0245 18.4889 14.5221 18.4068 14.9578 18.2388C15.6583 17.9696 16.1948 17.4739 16.2894 16.7501C16.2957 16.6998 16.3152 16.6533 16.3433 16.6139V15.7877C14.6425 16.8059 12.9829 16.8803 11.1749 15.9858C11.0035 15.8999 10.8315 15.8058 10.6573 15.6996L10.7215 16.604ZM12.4636 23.4562C12.4372 23.4873 12.4125 23.5191 12.389 23.553C12.2515 23.7532 12.1712 23.9929 12.1712 24.2495C12.1712 24.9503 12.7662 25.5188 13.5006 25.5188C13.9821 25.5188 13.9236 26.1491 13.9231 26.2629V26.7066H14.8185V24.4175C14.8337 24.3061 14.8337 24.1934 14.8185 24.0821V24.081H14.8179C14.7881 23.866 14.7015 23.6679 14.5737 23.5005L14.5674 23.4923C14.5519 23.4737 14.537 23.4551 14.521 23.4365L14.5141 23.4288L14.5072 23.4211L14.5038 23.4173L14.5003 23.4135L14.4934 23.4058L14.486 23.3982L14.4791 23.3911L14.4717 23.3834C14.455 23.3664 14.4373 23.3495 14.4195 23.3331L14.4115 23.3259L14.388 23.3052L14.3805 23.2986L14.3725 23.292L14.3639 23.2855L14.3576 23.28L14.3559 23.2789L14.3478 23.2723L14.3312 23.2592L14.3232 23.2532L14.3146 23.2472L14.3117 23.245L14.3066 23.2406L14.298 23.2346L14.2894 23.2286L14.2882 23.228L14.2808 23.2225L14.2722 23.2165L14.2647 23.2116L14.2636 23.2105L14.2544 23.205L14.2458 23.199L14.2406 23.1957L14.2372 23.1935L14.228 23.1875L14.2189 23.1821L14.216 23.1799L14.2103 23.1766L14.2011 23.1711L14.1919 23.1662L14.1827 23.1607L14.1736 23.1552L14.1655 23.1509L14.1644 23.1503L14.1552 23.1454L14.1455 23.1405L14.1363 23.1355L14.1271 23.1306L14.1174 23.1257L14.1139 23.1241L14.1082 23.1208L14.0985 23.1164L14.0887 23.1115L14.0876 23.1109L14.079 23.1071L14.0692 23.1027L14.0595 23.0983L14.0497 23.094C13.8773 23.019 13.69 22.9804 13.5006 22.9807C13.277 22.9807 13.0666 23.0332 12.882 23.1262L12.8729 23.1306L12.8666 23.1339L12.8637 23.1355L12.8545 23.1405L12.8448 23.1454L12.8385 23.1492L12.8362 23.1503L12.8264 23.1558L12.8178 23.1607L12.811 23.1645L12.8087 23.1662L12.7995 23.1711L12.7909 23.1766L12.784 23.181L12.7817 23.1821L12.7731 23.1875L12.7645 23.193L12.7571 23.1974L12.7553 23.1985L12.7468 23.2045L12.7382 23.21L12.7307 23.2149L12.7296 23.216L12.721 23.2214L12.7129 23.2275L12.7049 23.2329L12.7043 23.2335L12.6957 23.2395L12.6871 23.2461L12.6797 23.2515L12.6791 23.2521L12.6711 23.2581L12.6625 23.2647L12.655 23.2707H12.6545L12.6464 23.2773L12.6384 23.2838L12.6229 23.297L12.6149 23.3035L12.5994 23.3166L12.5914 23.3238L12.5839 23.3309L12.5834 23.3314L12.5765 23.3374L12.569 23.3445L12.5616 23.3517L12.5604 23.3528L12.5541 23.3588L12.5467 23.3659L12.5392 23.373L12.5381 23.3741L12.5324 23.3801L12.5249 23.3878L12.4899 23.425L12.4836 23.4326L12.4768 23.4403L12.4699 23.448L12.4636 23.4562ZM12.0285 23.3331C10.7066 22.5053 9.85701 21.7393 9.31357 20.9148C8.63771 19.89 8.44395 18.7996 8.41299 17.411C4.80611 18.084 2.3549 18.6535 1.4165 23.2089L1.15968 24.7031H6.53503V21.9406C6.53503 21.7716 6.67834 21.6343 6.85605 21.6343C7.03261 21.6343 7.1765 21.7716 7.1765 21.9406V27.3872H19.792V21.9406C19.792 21.7716 19.9359 21.6343 20.113 21.6343C20.2901 21.6343 20.4334 21.7716 20.4334 21.9406V24.7031H25.7761L25.3152 22.3231C24.5425 18.6902 21.6854 18.0331 18.5566 17.5385C18.368 19.1027 17.9427 20.2779 17.1866 21.277C16.6248 22.0194 15.8859 22.6563 14.9297 23.2762C15.0845 23.483 15.1911 23.7248 15.2346 23.9863C15.241 24.012 15.245 24.0383 15.2461 24.0657C15.2524 24.1297 15.2553 24.1849 15.2576 24.2495C15.2553 24.3135 15.2524 24.3682 15.2461 24.4311V26.7066C15.2461 26.8149 15.2011 26.9187 15.1209 26.9952C15.0407 27.0718 14.9319 27.1148 14.8185 27.1148H13.9231C13.6869 27.1148 13.4948 26.932 13.4948 26.7066V26.2629L13.4977 26.2175V26.142C13.4977 26.0665 13.5029 25.927 13.5006 25.927C13.015 25.927 12.5759 25.7393 12.2578 25.4356C11.9402 25.132 11.743 24.7129 11.743 24.2495C11.743 23.9114 11.8479 23.5968 12.0285 23.3331ZM0.905732 26.177L0.697643 27.3872H6.53503V26.177H0.905732ZM20.4334 27.3872H26.2955L26.0616 26.177H20.4334V27.3872Z" fill="#0047AB" stroke="#0047AB" stroke-width="0.5"/>
</svg>
