<svg width="18" height="18" viewBox="0 0 18 18" fill="none" xmlns="http://www.w3.org/2000/svg">
<g clip-path="url(#clip0_4109_16673)">
<path d="M14.9864 10.0719C14.6462 9.44331 14.4492 8.93987 14.4492 8.22684L14.4492 7.17211C14.4492 5.72505 13.8887 4.35832 12.8709 3.32371C11.9987 2.437 10.8787 1.88371 9.66794 1.73099V0.703377C9.66794 0.315041 9.35316 0.000252919 8.96482 0.000252919C8.57649 0.000252919 8.2617 0.315041 8.2617 0.703377V1.73243C7.63652 1.81259 7.03492 2.00029 6.46655 2.29317C6.12135 2.47106 5.98572 2.89508 6.16361 3.24028C6.28845 3.48247 6.53437 3.62148 6.78925 3.62148C6.89767 3.62148 7.00775 3.59631 7.11075 3.54322C7.67097 3.25456 8.27467 3.10356 8.9053 3.09445H9.03812C11.2468 3.12652 13.043 4.95481 13.043 7.17211L13.0429 8.2268C13.0429 9.34213 13.4078 10.1096 13.7497 10.7413C13.877 10.9764 14.1189 11.1099 14.3687 11.1099C14.4817 11.1099 14.5964 11.0825 14.7028 11.025C15.0443 10.8401 15.1713 10.4134 14.9864 10.0719ZM17.7941 16.7999L1.20033 0.206198C0.925728 -0.0684071 0.48051 -0.0684071 0.20594 0.206198C-0.0686293 0.480803 -0.0686644 0.925986 0.20594 1.20056L3.95391 4.94852C3.63975 5.65154 3.48046 6.39942 3.48046 7.17211V8.2268C3.48046 9.16361 3.14039 9.75841 2.7099 10.5115C2.28575 11.2534 1.80502 12.0943 1.56188 13.3916C1.44583 14.0109 1.61001 14.6441 2.01234 15.1288C2.41428 15.6131 3.00578 15.8908 3.63507 15.8908H6.86909C6.86909 17.054 7.81535 18.0002 8.97846 18.0002C10.1416 18.0002 11.0878 17.054 11.0878 15.8908H14.3082C14.4864 15.8908 14.6614 15.869 14.8311 15.8257L16.7997 17.7943C16.8649 17.8597 16.9424 17.9115 17.0277 17.9469C17.113 17.9822 17.2045 18.0003 17.2968 18.0002C17.3892 18.0003 17.4807 17.9822 17.566 17.9469C17.6513 17.9115 17.7288 17.8597 17.7941 17.7943C18.0687 17.5197 18.0687 17.0745 17.7941 16.7999ZM8.97846 16.594C8.59076 16.594 8.27534 16.2785 8.27534 15.8908H9.68159C9.68159 16.2785 9.3662 16.594 8.97846 16.594ZM3.63507 14.4846C3.34802 14.4846 3.17312 14.3255 3.09441 14.2307C3.01552 14.1356 2.89103 13.9338 2.94411 13.6506C3.14356 12.5864 3.54374 11.8864 3.93074 11.2094C4.40071 10.3873 4.8867 9.53721 4.8867 8.2268V7.17211C4.8867 6.78526 4.94046 6.4069 5.04695 6.0416L13.49 14.4846H3.63507Z" fill="#0047AB"/>
</g>
<defs>
<clipPath id="clip0_4109_16673">
<rect width="18" height="18" fill="white"/>
</clipPath>
</defs>
</svg>
