<svg width="4" height="18" viewBox="0 0 4 18" fill="none" xmlns="http://www.w3.org/2000/svg">
<path d="M1.11138 1.88889C1.11138 2.37981 1.50935 2.77778 2.00027 2.77778C2.49119 2.77778 2.88916 2.37981 2.88916 1.88889C2.88916 1.39797 2.49119 1 2.00027 1C1.50935 1 1.11138 1.39797 1.11138 1.88889Z" stroke="white" stroke-width="2"/>
<path d="M1.11138 8.99997C1.11138 9.49089 1.50935 9.88886 2.00027 9.88886C2.49119 9.88886 2.88916 9.49089 2.88916 8.99997C2.88916 8.50905 2.49119 8.11108 2.00027 8.11108C1.50935 8.11108 1.11138 8.50905 1.11138 8.99997Z" stroke="white" stroke-width="2"/>
<path d="M1.11138 16.1111C1.11138 16.602 1.50935 16.9999 2.00027 16.9999C2.49119 16.9999 2.88916 16.602 2.88916 16.1111C2.88916 15.6201 2.49119 15.2222 2.00027 15.2222C1.50935 15.2222 1.11138 15.6201 1.11138 16.1111Z" stroke="white" stroke-width="2"/>
</svg>
