<svg width="34" height="34" viewBox="0 0 34 34" fill="none" xmlns="http://www.w3.org/2000/svg">
<circle cx="17" cy="17" r="17" fill="white"/>
<path d="M17 12.3667V15.1417" stroke="#0047AB" stroke-width="1.5" stroke-miterlimit="10" stroke-linecap="round"/>
<path d="M17.0166 8.66663C13.9499 8.66663 11.4666 11.15 11.4666 14.2166V15.9666C11.4666 16.5333 11.2332 17.3833 10.9416 17.8666L9.88325 19.6333C9.23325 20.725 9.68325 21.9416 10.8832 22.3416C14.8666 23.6666 19.1749 23.6666 23.1582 22.3416C24.2832 21.9666 24.7666 20.65 24.1582 19.6333L23.0999 17.8666C22.8082 17.3833 22.5749 16.525 22.5749 15.9666V14.2166C22.5666 11.1666 20.0666 8.66663 17.0166 8.66663Z" stroke="#0047AB" stroke-width="1.5" stroke-miterlimit="10" stroke-linecap="round"/>
<path d="M19.7746 22.6833C19.7746 24.2083 18.5246 25.4583 16.9996 25.4583C16.2413 25.4583 15.5413 25.1417 15.0413 24.6417C14.5413 24.1417 14.2246 23.4417 14.2246 22.6833" stroke="#0047AB" stroke-width="1.5" stroke-miterlimit="10"/>
</svg>
