<svg width="18" height="18" viewBox="0 0 18 18" fill="none" xmlns="http://www.w3.org/2000/svg">
<g clip-path="url(#clip0_5269_18574)">
<path d="M16.1159 13.3833C15.8043 13.1515 15.3639 13.2163 15.1321 13.5278C15.004 13.6999 14.8687 13.8666 14.7266 14.0273C14.4695 14.3183 14.4968 14.7626 14.7877 15.0198C14.916 15.1336 15.0816 15.1964 15.2531 15.1962C15.4476 15.1962 15.6413 15.1159 15.7802 14.9587C15.9485 14.7683 16.1087 14.571 16.2604 14.3671C16.4922 14.0556 16.4275 13.6151 16.1159 13.3833ZM17.2918 10.0858C16.9126 10.0033 16.5378 10.2439 16.4552 10.6233C16.4096 10.8327 16.3551 11.0401 16.2919 11.2449C16.1773 11.6159 16.3851 12.0096 16.7561 12.1243C16.8253 12.1456 16.8951 12.1558 16.9639 12.1558C17.2641 12.1558 17.5422 11.9619 17.6355 11.66C17.7105 11.417 17.7752 11.1709 17.8293 10.9224C17.9119 10.543 17.6713 10.1685 17.2918 10.0858ZM12.7315 15.6352C12.5442 15.7397 12.3525 15.8363 12.1571 15.9246C11.8032 16.0844 11.6458 16.5009 11.8056 16.8548C11.9231 17.1148 12.179 17.2687 12.4469 17.2687C12.5436 17.2687 12.6419 17.2486 12.7358 17.2062C12.9677 17.1015 13.1949 16.987 13.4171 16.863C13.7562 16.6737 13.8775 16.2454 13.6882 15.9063C13.4989 15.5673 13.0706 15.4459 12.7315 15.6352ZM8.29695 3.375V8.70877L5.71862 11.2871C5.44405 11.5617 5.44405 12.0068 5.71862 12.2814C5.78384 12.3468 5.86134 12.3987 5.94667 12.434C6.032 12.4694 6.12348 12.4875 6.21584 12.4874C6.3082 12.4875 6.39966 12.4693 6.48499 12.434C6.57032 12.3987 6.64782 12.3468 6.71305 12.2814L9.49729 9.49718C9.62913 9.36531 9.7032 9.18647 9.7032 9V3.375C9.7032 2.98666 9.38841 2.67188 9.00007 2.67188C8.61174 2.67188 8.29695 2.98666 8.29695 3.375Z" fill="#DFA538"/>
<path d="M17.2969 1.51172C16.9085 1.51172 16.5938 1.82651 16.5938 2.21484V4.16728C14.9572 1.60059 12.0991 0 9 0C6.59602 0 4.33593 0.936176 2.63602 2.63602C0.936176 4.33593 0 6.59602 0 9C0 11.404 0.936176 13.6641 2.63602 15.364C4.33593 17.0638 6.59602 18 9 18C9.00594 18 9.01167 17.9993 9.01758 17.9991C9.02348 17.9993 9.02921 18 9.03516 18C9.28856 18 9.54447 17.9893 9.79583 17.9683C10.1828 17.9359 10.4702 17.5959 10.4379 17.2089C10.4054 16.822 10.0659 16.5344 9.67848 16.567C9.466 16.5847 9.24957 16.5938 9.03516 16.5938C9.02921 16.5938 9.02348 16.5945 9.01758 16.5946C9.01167 16.5945 9.00594 16.5938 9 16.5938C4.81279 16.5938 1.40625 13.1872 1.40625 9C1.40625 4.81279 4.81279 1.40625 9 1.40625C11.6985 1.40625 14.1805 2.8446 15.5368 5.13281H13.6035C13.2151 5.13281 12.9003 5.4476 12.9003 5.83594C12.9003 6.22427 13.2151 6.53906 13.6035 6.53906H15.75C16.1628 6.53954 16.5678 6.42573 16.9199 6.21025C16.9416 6.19788 16.9627 6.18436 16.983 6.16975C17.595 5.76717 18 5.0747 18 4.28906V2.21484C18 1.82651 17.6852 1.51172 17.2969 1.51172Z" fill="#DFA538"/>
</g>
<defs>
<clipPath id="clip0_5269_18574">
<rect width="18" height="18" fill="white"/>
</clipPath>
</defs>
</svg>
