<svg width="48" height="48" viewBox="0 0 48 48" fill="none" xmlns="http://www.w3.org/2000/svg">
<mask id="mask0_230_2610" style="mask-type:luminance" maskUnits="userSpaceOnUse" x="0" y="0" width="48" height="48">
<path d="M0 0H48V48H0V0Z" fill="white"/>
</mask>
<g mask="url(#mask0_230_2610)">
<mask id="mask1_230_2610" style="mask-type:luminance" maskUnits="userSpaceOnUse" x="0" y="0" width="48" height="48">
<path d="M0 0H48V48H0V0Z" fill="white"/>
</mask>
<g mask="url(#mask1_230_2610)">
<path d="M33.2562 14.7479C32.1703 13.6616 31.5981 12.3511 31.5396 10.8162C31.4809 9.28139 31.9516 7.93105 32.9516 6.7652C32.7568 6.99367 32.6656 7.25655 32.678 7.55384C32.6904 7.85112 32.8023 8.10449 33.0136 8.31396L28.8712 4.16681C29.0933 4.38894 29.3611 4.5 29.6746 4.5C29.9879 4.5 30.2555 4.38922 30.4772 4.16767L23.883 10.7618C23.8437 10.8011 23.8094 10.8444 23.7802 10.8916C23.7511 10.9388 23.7278 10.9887 23.7102 11.0414C23.5267 11.5956 23.2283 12.0802 22.8148 12.495C22.4014 12.9098 21.917 13.2101 21.3617 13.396C21.3073 13.4142 21.2563 13.4379 21.2087 13.4673C21.1611 13.4967 21.1175 13.5311 21.0779 13.5706L4.1673 30.4776C4.3891 30.2556 4.5 29.9879 4.5 29.6746C4.5 29.3611 4.38922 29.0936 4.16767 28.872L8.3046 33.009C8.09825 32.8007 7.84643 32.6904 7.54914 32.678C7.25185 32.6656 6.99001 32.7559 6.76364 32.949C7.92679 31.9501 9.27611 31.4797 10.8116 31.5378C12.3471 31.5961 13.6582 32.1685 14.7447 33.255C15.8312 34.3415 16.4036 35.6526 16.4619 37.1882C16.5201 38.7237 16.0486 40.0743 15.0475 41.24C15.2428 41.0111 15.3342 40.7479 15.3218 40.4506C15.3094 40.1533 15.1975 39.8999 14.9862 39.6904L19.128 43.8324C18.9062 43.6107 18.6386 43.4998 18.3252 43.4998C18.0118 43.4998 17.7443 43.6105 17.5226 43.832L34.4348 26.9208C34.4736 26.8819 34.5077 26.8386 34.5372 26.791C34.5665 26.7434 34.5901 26.6931 34.6078 26.64C34.7913 26.0859 35.0897 25.6014 35.503 25.1866C35.9165 24.7718 36.4009 24.4715 36.9562 24.2856C37.0103 24.2676 37.061 24.244 37.1082 24.2148C37.1554 24.1856 37.1986 24.1514 37.2378 24.1122L43.8324 17.5177C43.6107 17.7395 43.4998 18.0071 43.4998 18.3205C43.4998 18.6339 43.6105 18.9014 43.832 19.1231L39.6952 14.9862C39.9015 15.1944 40.1533 15.3047 40.4506 15.3171C40.7479 15.3295 41.0098 15.2392 41.2362 15.0461C40.0751 16.045 38.7272 16.5164 37.1924 16.4602C35.6576 16.4041 34.3463 15.834 33.2584 14.7499L33.2562 14.7479ZM35.3758 12.6248C35.9085 13.1556 36.5505 13.4347 37.302 13.4622C38.0536 13.4897 38.716 13.2569 39.2892 12.7637C39.66 12.4473 40.0889 12.2994 40.576 12.3197C41.0629 12.3401 41.4764 12.5218 41.8164 12.8648L45.954 17.0023C46.3179 17.3664 46.4998 17.8058 46.4998 18.3205C46.4998 18.8352 46.3177 19.2747 45.9536 19.639L39.3594 26.2332C39.1554 26.4373 38.9307 26.6152 38.6852 26.7668C38.4397 26.9185 38.1809 27.0397 37.9086 27.1304C37.8013 27.1663 37.7077 27.2243 37.628 27.3044C37.5481 27.3845 37.4901 27.4792 37.4538 27.5884C37.3627 27.862 37.2415 28.1215 37.09 28.3668C36.9385 28.6123 36.7606 28.8374 36.5562 29.0422L19.6434 45.954C19.2793 46.3179 18.8399 46.4998 18.3252 46.4998C17.8105 46.4998 17.371 46.3177 17.0067 45.9536L12.8742 41.8212C12.528 41.478 12.3448 41.0629 12.3244 40.576C12.304 40.0891 12.4531 39.6589 12.7716 39.2854C13.2617 38.7147 13.4925 38.0535 13.464 37.3018C13.4355 36.5501 13.1553 35.9083 12.6234 35.3764C12.0915 34.8444 11.4496 34.5642 10.6979 34.5358C9.94623 34.5073 9.28375 34.7391 8.7105 35.2314C8.33967 35.5477 7.91077 35.6957 7.42378 35.6754C6.93679 35.655 6.52329 35.4733 6.18328 35.1302L2.04584 30.9928C1.68195 30.6287 1.5 30.1893 1.5 29.6746C1.5 29.1598 1.68207 28.7203 2.04621 28.356L18.9587 11.4472C19.1628 11.2435 19.3875 11.066 19.6329 10.9145C19.8783 10.763 20.1371 10.6419 20.4093 10.5512C20.5166 10.5153 20.6101 10.4573 20.69 10.3772C20.7698 10.2971 20.8278 10.2025 20.8639 10.0934C20.9551 9.8196 21.0765 9.55999 21.2282 9.31452C21.3799 9.06907 21.5577 8.84438 21.7617 8.64046L28.3564 2.04584C28.7204 1.68195 29.1598 1.5 29.6746 1.5C30.1893 1.5 30.6289 1.68223 30.9936 2.04669L35.1256 6.1833C35.4717 6.52642 35.655 6.94147 35.6754 7.42846C35.6957 7.91545 35.5468 8.3454 35.2288 8.71832C34.7392 9.28916 34.5087 9.95033 34.5374 10.7018C34.5661 11.4533 34.8463 12.095 35.378 12.6269L35.3758 12.6248Z" fill="#0891B2"/>
<path fill-rule="evenodd" clip-rule="evenodd" d="M20.8759 10.5573C20.2901 11.1431 20.2901 12.0929 20.8759 12.6786L22.4237 14.2265C23.0095 14.8122 23.9592 14.8122 24.545 14.2265C25.1308 13.6407 25.1308 12.6909 24.545 12.1051L22.9972 10.5573C22.4114 9.97154 21.4616 9.97154 20.8759 10.5573ZM25.5179 15.2012C24.9324 15.7873 24.9328 16.737 25.5188 17.3226L26.551 18.3538C27.1371 18.9393 28.0868 18.9389 28.6724 18.3528C29.2579 17.7668 29.2574 16.817 28.6714 16.2315L27.6392 15.2003C27.0532 14.6148 26.1034 14.6152 25.5179 15.2012ZM29.6467 19.3272C29.0606 19.9127 29.0602 20.8624 29.6457 21.4485L30.6769 22.4807C31.2625 23.0667 32.2122 23.0671 32.7983 22.4816C33.3843 21.8961 33.3847 20.9463 32.7992 20.3603L31.768 19.3281C31.1825 18.7421 30.2327 18.7416 29.6467 19.3272ZM33.773 23.4545C33.1873 24.0403 33.1873 24.99 33.773 25.5758L35.3209 27.1236C35.9066 27.7094 36.8564 27.7094 37.4422 27.1236C38.028 26.5379 38.028 25.5881 37.4422 25.0023L35.8944 23.4545C35.3086 22.8687 34.3588 22.8687 33.773 23.4545Z" fill="#0891B2"/>
</g>
</g>
</svg>
