<svg width="38" height="38" viewBox="0 0 38 38" fill="none" xmlns="http://www.w3.org/2000/svg">
<path d="M28.5 11.3366C28.405 11.3207 28.2941 11.3207 28.1991 11.3366C26.0141 11.2574 24.2725 9.46823 24.2725 7.25157C24.2725 4.9874 26.0933 3.16656 28.3575 3.16656C30.6216 3.16656 32.4425 5.00323 32.4425 7.25157C32.4266 9.46823 30.685 11.2574 28.5 11.3366Z" stroke="#9333EA" stroke-width="3" stroke-linecap="round" stroke-linejoin="round"/>
<path d="M26.8698 22.8631C29.0389 23.2273 31.4298 22.8473 33.1081 21.7231C35.3406 20.2348 35.3406 17.7965 33.1081 16.3081C31.4139 15.184 28.9914 14.8039 26.8223 15.1839" stroke="#9333EA" stroke-width="3" stroke-linecap="round" stroke-linejoin="round"/>
<path d="M9.45373 11.3366C9.54873 11.3207 9.65956 11.3207 9.75456 11.3366C11.9396 11.2574 13.6812 9.46823 13.6812 7.25157C13.6812 4.9874 11.8604 3.16656 9.59623 3.16656C7.33207 3.16656 5.51123 5.00323 5.51123 7.25157C5.52706 9.46823 7.26873 11.2574 9.45373 11.3366Z" stroke="#9333EA" stroke-width="3" stroke-linecap="round" stroke-linejoin="round"/>
<path d="M11.0846 22.8631C8.91541 23.2273 6.52458 22.8473 4.84625 21.7231C2.61375 20.2348 2.61375 17.7965 4.84625 16.3081C6.54042 15.184 8.96291 14.8039 11.1321 15.1839" stroke="#9333EA" stroke-width="3" stroke-linecap="round" stroke-linejoin="round"/>
<path d="M19 23.1641C18.905 23.1483 18.7941 23.1483 18.6991 23.1641C16.5141 23.0849 14.7725 21.2957 14.7725 19.0791C14.7725 16.8149 16.5933 14.9941 18.8575 14.9941C21.1216 14.9941 22.9425 16.8307 22.9425 19.0791C22.9266 21.2957 21.185 23.1008 19 23.1641Z" stroke="#9333EA" stroke-width="3" stroke-linecap="round" stroke-linejoin="round"/>
<path d="M14.3921 28.1514C12.1596 29.6398 12.1596 32.0781 14.3921 33.5664C16.9255 35.2606 21.0738 35.2606 23.6071 33.5664C25.8396 32.0781 25.8396 29.6398 23.6071 28.1514C21.0896 26.4731 16.9255 26.4731 14.3921 28.1514Z" stroke="#9333EA" stroke-width="3" stroke-linecap="round" stroke-linejoin="round"/>
</svg>
