<svg width="28" height="28" viewBox="0 0 28 28" fill="none" xmlns="http://www.w3.org/2000/svg">
<circle cx="14" cy="14" r="14" fill="#0047AB"/>
<g clip-path="url(#clip0_5269_18516)">
<mask id="mask0_5269_18516" style="mask-type:luminance" maskUnits="userSpaceOnUse" x="6" y="5" width="17" height="17">
<path d="M6 5H23V22H6V5Z" fill="white"/>
</mask>
<g mask="url(#mask0_5269_18516)">
<mask id="mask1_5269_18516" style="mask-type:luminance" maskUnits="userSpaceOnUse" x="6" y="5" width="17" height="17">
<path d="M6 5H23V22H6V5Z" fill="white"/>
</mask>
<g mask="url(#mask1_5269_18516)">
<path d="M19.7994 15.7871C19.7322 15.5449 19.7864 15.2733 19.962 14.9722C19.9799 14.9424 19.9974 14.9148 20.0145 14.8895C20.0316 14.8642 20.0495 14.8393 20.068 14.8149L20.4906 15.1369L20.0499 14.8403C20.3187 14.441 20.5234 14.0111 20.6641 13.5508C20.8048 13.0904 20.8753 12.6196 20.8758 12.1382C20.878 11.4604 20.7436 10.8123 20.4726 10.194C20.2102 9.59509 19.8382 9.06414 19.3567 8.60117C18.8735 8.13668 18.3179 7.77691 17.6899 7.52187C17.0383 7.25729 16.3549 7.125 15.6396 7.125C15.0156 7.125 14.4136 7.22685 13.8335 7.43055C13.274 7.62703 12.7633 7.90785 12.3014 8.27302C11.8445 8.63432 11.4623 9.05671 11.155 9.5402C10.8427 10.0315 10.6258 10.5577 10.5044 11.1188C10.4676 11.2874 10.4399 11.4572 10.4214 11.6281C10.4029 11.799 10.3936 11.9704 10.3936 12.1423C10.3936 12.8253 10.5256 13.4798 10.7897 14.1056C11.0466 14.7143 11.4097 15.2534 11.8791 15.723C12.3517 16.1958 12.8958 16.5617 13.5114 16.8207C14.1527 17.0905 14.8289 17.2254 15.54 17.2254C15.7359 17.2254 15.982 17.1985 16.2786 17.1447C16.5134 17.1021 16.7428 17.0501 16.9667 16.9887C17.2319 16.9159 17.4971 16.8292 17.7622 16.7287C17.8421 16.6986 17.9236 16.6759 18.0069 16.6607C18.0902 16.6454 18.1741 16.6378 18.2588 16.6377C18.3508 16.6373 18.4424 16.6462 18.5336 16.6643C18.6248 16.6823 18.7133 16.7092 18.7991 16.7449L18.5947 17.2353L18.7722 16.7346L20.6698 17.4073L20.6844 17.4135C20.6807 17.4119 20.6768 17.4106 20.6728 17.4096C20.6688 17.4085 20.6648 17.4078 20.6607 17.4075L20.6068 17.9359V17.4047C20.5335 17.4047 20.4709 17.4306 20.419 17.4825C20.3671 17.5344 20.3412 17.597 20.3412 17.6703H20.8724L20.3427 17.7107C20.343 17.7144 20.3435 17.7181 20.3442 17.7217C20.3449 17.7254 20.3458 17.7291 20.3468 17.7326L19.7999 15.7888L19.7994 15.7871ZM20.8227 15.501L21.3649 17.4287C21.3747 17.4615 21.3827 17.4947 21.3889 17.5283C21.3952 17.562 21.3996 17.5958 21.4022 17.6299L21.4037 17.6501V17.6703C21.4037 17.8904 21.3259 18.0782 21.1703 18.2338C21.0147 18.3894 20.8269 18.4672 20.6068 18.4672H20.5798L20.553 18.4644C20.5043 18.4595 20.4563 18.4509 20.4089 18.4388C20.3615 18.4266 20.3153 18.411 20.2703 18.392L20.4773 17.9027L20.2998 18.4034L18.4037 17.7312L18.3904 17.7257C18.37 17.7172 18.3489 17.7108 18.3272 17.7065C18.3054 17.7022 18.283 17.7001 18.26 17.7002C18.2391 17.7002 18.2185 17.7021 18.198 17.7059C18.1775 17.7096 18.1578 17.715 18.139 17.7221C17.8424 17.8346 17.5453 17.9316 17.2477 18.0133C16.5805 18.1964 16.0112 18.2879 15.54 18.2879C14.686 18.2879 13.8724 18.1253 13.0993 17.8C12.3556 17.4871 11.6984 17.0452 11.1276 16.4742C10.5604 15.9067 10.1215 15.2549 9.81082 14.5187C9.49098 13.7608 9.33105 12.9684 9.33105 12.1417C9.33117 11.9318 9.34251 11.7225 9.36509 11.5138C9.38767 11.3051 9.42128 11.0985 9.46592 10.8941C9.61405 10.2094 9.87819 9.56812 10.2583 8.97017C10.6301 8.38546 11.0914 7.87526 11.6425 7.43957C12.1972 7.00095 12.8102 6.66378 13.4815 6.42807C14.1755 6.18436 14.8949 6.0625 15.6396 6.0625C16.4932 6.0625 17.3099 6.22081 18.0896 6.53743C18.8439 6.84373 19.5117 7.27633 20.093 7.83525C20.676 8.3957 21.1269 9.0398 21.4458 9.76755C21.7768 10.5229 21.9409 11.3134 21.9383 12.1392C21.9377 12.726 21.8517 13.3001 21.6801 13.8613C21.5086 14.4226 21.259 14.9466 20.9314 15.4335L20.9226 15.4464L20.9132 15.4589C20.9066 15.4675 20.9003 15.4764 20.8942 15.4854C20.888 15.4944 20.8832 15.5018 20.8798 15.5075C20.8571 15.5464 20.8417 15.5786 20.8335 15.6042C20.8326 15.6069 20.8319 15.6098 20.8319 15.6098C20.8325 15.607 20.833 15.6032 20.8335 15.5985C20.8363 15.5694 20.8328 15.5375 20.8232 15.5027L20.8227 15.501Z" fill="white"/>
<path fill-rule="evenodd" clip-rule="evenodd" d="M8.4654 12.239C8.20904 12.0963 7.88553 12.1885 7.74283 12.4448C7.25028 13.3297 7.02518 14.2781 7.06753 15.2899C7.10988 16.3018 7.41344 17.228 7.97822 18.0686L7.60795 19.992C7.58015 20.1328 7.59043 20.2718 7.63879 20.4088C7.68715 20.5459 7.76702 20.6611 7.8784 20.7544L7.88857 20.7627C7.96053 20.82 8.04 20.8637 8.12698 20.8938C8.21395 20.9237 8.30343 20.9384 8.39544 20.9376C8.44472 20.9377 8.49544 20.9324 8.54759 20.9217C8.59569 20.9117 8.64239 20.8974 8.68769 20.8786L10.5449 20.1517L10.5595 20.1576C11.3032 20.4474 12.0408 20.5923 12.7721 20.5923C13.2854 20.5928 13.79 20.5265 14.2861 20.3933C14.7821 20.2601 15.2523 20.0647 15.6966 19.807C15.9503 19.6598 16.0368 19.3347 15.8896 19.0809C15.7424 18.8272 15.4173 18.7407 15.1635 18.888C14.8003 19.0986 14.416 19.2583 14.0106 19.3672C13.6051 19.476 13.1923 19.5302 12.7721 19.5298C12.1763 19.5298 11.5698 19.41 10.9528 19.1705C10.8281 19.1181 10.6981 19.0908 10.5627 19.0885C10.4233 19.0862 10.2892 19.1104 10.1603 19.1612L8.74294 19.716L9.04656 18.1429C9.07438 18.0072 9.05745 17.8661 8.99576 17.7197C8.96574 17.6485 8.92054 17.5673 8.86015 17.4761C8.40678 16.8013 8.1631 16.0577 8.1291 15.2455C8.0951 14.4332 8.2758 13.6719 8.6712 12.9616C8.8139 12.7052 8.72175 12.3817 8.4654 12.239Z" fill="white"/>
</g>
</g>
</g>
<rect x="16" y="6" width="6" height="6" rx="3" fill="#FB6A57" stroke="white"/>
<defs>
<clipPath id="clip0_5269_18516">
<rect width="17" height="17" fill="white" transform="translate(6 5)"/>
</clipPath>
</defs>
</svg>
