<svg width="15" height="15" viewBox="0 0 15 15" fill="none" xmlns="http://www.w3.org/2000/svg">
<path d="M5.7251 6.79375C5.6626 6.7875 5.5876 6.7875 5.51885 6.79375C4.03135 6.74375 2.8501 5.525 2.8501 4.025C2.8501 2.49375 4.0876 1.25 5.6251 1.25C7.15635 1.25 8.4001 2.49375 8.4001 4.025C8.39385 5.525 7.2126 6.74375 5.7251 6.79375Z" stroke="#0047AB" stroke-linecap="round" stroke-linejoin="round"/>
<path d="M10.2565 2.5C11.469 2.5 12.444 3.48125 12.444 4.6875C12.444 5.86875 11.5065 6.83125 10.3378 6.875C10.2878 6.86875 10.2315 6.86875 10.1753 6.875" stroke="#0047AB" stroke-linecap="round" stroke-linejoin="round"/>
<path d="M2.59971 9.1C1.08721 10.1125 1.08721 11.7625 2.59971 12.7687C4.31846 13.9187 7.13721 13.9187 8.85596 12.7687C10.3685 11.7562 10.3685 10.1063 8.85596 9.1C7.14346 7.95625 4.32471 7.95625 2.59971 9.1Z" stroke="#0047AB" stroke-linecap="round" stroke-linejoin="round"/>
<path d="M11.4624 12.5C11.9124 12.4062 12.3374 12.225 12.6874 11.9562C13.6624 11.225 13.6624 10.0187 12.6874 9.2875C12.3437 9.025 11.9249 8.85 11.4812 8.75" stroke="#0047AB" stroke-linecap="round" stroke-linejoin="round"/>
</svg>
