<svg width="43" height="43" viewBox="0 0 43 43" fill="none" xmlns="http://www.w3.org/2000/svg">
<mask id="mask0_230_2590" style="mask-type:luminance" maskUnits="userSpaceOnUse" x="0" y="0" width="43" height="43">
<path d="M0 6.10352e-05H43V43.0001H0V6.10352e-05Z" fill="white"/>
</mask>
<g mask="url(#mask0_230_2590)">
<path fill-rule="evenodd" clip-rule="evenodd" d="M34.9375 12.0938V26.8751C34.9375 27.6172 35.5391 28.2188 36.2813 28.2188C37.0234 28.2188 37.625 27.6172 37.625 26.8751V12.0938C37.625 10.9806 37.2314 10.0304 36.4442 9.24328C35.6571 8.45613 34.7069 8.06256 33.5938 8.06256C33.1158 8.06256 32.6679 8.13512 32.25 8.28023V6.71881C32.25 5.60561 31.8564 4.65543 31.0693 3.86828C30.2821 3.08113 29.3319 2.68756 28.2188 2.68756C27.6886 2.68756 27.1955 2.77682 26.7393 2.95533C26.5629 2.29259 26.2146 1.70108 25.6943 1.18079C24.9071 0.393636 23.9569 6.10352e-05 22.8438 6.10352e-05C21.7306 6.10352e-05 20.7804 0.393636 19.9932 1.18079C19.2061 1.96794 18.8125 2.91811 18.8125 4.03131V4.24898C18.3946 4.10387 17.9467 4.03131 17.4688 4.03131C16.3556 4.03131 15.4054 4.42488 14.6182 5.21203C13.8311 5.99919 13.4375 6.94936 13.4375 8.06256V26.8751C13.4375 27.6172 14.0391 28.2188 14.7812 28.2188C15.5234 28.2188 16.125 27.6172 16.125 26.8751V8.06256C16.125 7.6915 16.2562 7.37478 16.5186 7.11239C16.781 6.85 17.0977 6.71881 17.4688 6.71881C17.8398 6.71881 18.1565 6.85 18.4189 7.11239C18.6813 7.37478 18.8125 7.6915 18.8125 8.06256V20.2403C18.8125 20.9824 19.4141 21.584 20.1563 21.584C20.8984 21.584 21.5 20.9824 21.5 20.2403V4.03131C21.5 3.66025 21.6312 3.34352 21.8936 3.08114C22.156 2.81875 22.4727 2.68756 22.8438 2.68756C23.2148 2.68756 23.5315 2.81875 23.7939 3.08114C24.0563 3.34352 24.1875 3.66025 24.1875 4.03131V20.1563C24.1875 20.2445 24.1961 20.3319 24.2133 20.4185C24.2305 20.505 24.256 20.589 24.2898 20.6705C24.3235 20.7521 24.3649 20.8295 24.414 20.9029C24.463 20.9762 24.5187 21.0441 24.5811 21.1065C24.6435 21.1689 24.7113 21.2246 24.7847 21.2736C24.8581 21.3226 24.9355 21.364 25.017 21.3978C25.0985 21.4315 25.1826 21.457 25.2691 21.4742C25.3556 21.4915 25.443 21.5001 25.5313 21.5001C25.6195 21.5001 25.7069 21.4915 25.7934 21.4742C25.8799 21.457 25.964 21.4315 26.0455 21.3978C26.127 21.364 26.2044 21.3226 26.2778 21.2736C26.3512 21.2246 26.419 21.1689 26.4814 21.1065C26.5438 21.0441 26.5995 20.9762 26.6485 20.9029C26.6976 20.8295 26.7389 20.7521 26.7727 20.6705C26.8065 20.589 26.832 20.505 26.8492 20.4185C26.8664 20.3319 26.875 20.2445 26.875 20.1563V6.71881C26.875 6.34775 27.0062 6.03103 27.2686 5.76864C27.531 5.50625 27.8477 5.37506 28.2188 5.37506C28.5898 5.37506 28.9065 5.50625 29.1689 5.76864C29.4313 6.03103 29.5625 6.34775 29.5625 6.71881V21.5001C29.5625 21.5883 29.5711 21.6757 29.5883 21.7622C29.6055 21.8487 29.631 21.9328 29.6648 22.0143C29.6985 22.0958 29.7399 22.1732 29.789 22.2466C29.838 22.32 29.8937 22.3878 29.9561 22.4502C30.0185 22.5126 30.0863 22.5683 30.1597 22.6174C30.2331 22.6664 30.3105 22.7078 30.392 22.7415C30.4735 22.7753 30.5576 22.8008 30.6441 22.818C30.7306 22.8352 30.818 22.8438 30.9062 22.8438C30.9945 22.8438 31.0819 22.8352 31.1684 22.818C31.2549 22.8008 31.339 22.7753 31.4205 22.7415C31.502 22.7078 31.5794 22.6664 31.6528 22.6174C31.7262 22.5683 31.794 22.5126 31.8564 22.4502C31.9188 22.3878 31.9745 22.32 32.0235 22.2466C32.0726 22.1732 32.1139 22.0958 32.1477 22.0143C32.1815 21.9328 32.207 21.8487 32.2242 21.7622C32.2414 21.6757 32.25 21.5883 32.25 21.5001V12.0938C32.25 11.7228 32.3812 11.406 32.6436 11.1436C32.906 10.8813 33.2227 10.7501 33.5938 10.7501C33.9648 10.7501 34.2815 10.8813 34.5439 11.1436C34.8063 11.406 34.9375 11.7228 34.9375 12.0938Z" fill="#2563EB"/>
<path fill-rule="evenodd" clip-rule="evenodd" d="M36.6 33.7712C37.2832 31.7325 37.6249 29.4338 37.6249 26.875C37.6249 26.1329 37.0233 25.5312 36.2811 25.5312C35.5389 25.5312 34.9374 26.1329 34.9374 26.875C34.9374 29.1415 34.6422 31.1555 34.0518 32.9171C33.5033 34.5536 32.7131 35.9322 31.6812 37.0528C30.6956 38.1232 29.512 38.934 28.1303 39.4851C26.7471 40.0366 25.2088 40.3124 23.5155 40.3124C20.3867 40.3124 17.9196 39.6715 16.1141 38.3896C14.6906 37.3789 13.5435 35.8404 12.6728 33.7742L8.26027 21.7103C7.89315 20.7153 8.02601 20.038 8.65887 19.6786C9.00834 19.4799 9.37317 19.4283 9.75334 19.5236C10.0907 19.6082 10.3405 19.7912 10.503 20.0727L13.54 27.3901C13.8245 28.0755 14.6108 28.4006 15.2962 28.1161C15.9817 27.8316 16.3067 27.0453 16.0222 26.3599L12.9576 18.976C12.942 18.9383 12.9247 18.9014 12.9057 18.8652C12.6408 18.362 12.2834 17.9396 11.8333 17.5979C11.4091 17.2759 10.9337 17.0488 10.4069 16.9168C9.33012 16.6468 8.305 16.7885 7.3315 17.3417C6.3633 17.8917 5.75077 18.6871 5.4939 19.7281C5.27225 20.6263 5.35305 21.5948 5.73631 22.6335L10.1598 34.7272C10.1669 34.7467 10.1745 34.766 10.1825 34.7851C11.2524 37.3374 12.711 39.2693 14.5582 40.5809C16.8296 42.1936 19.8153 42.9999 23.5155 42.9999C25.5529 42.9999 27.4231 42.6604 29.1259 41.9814C30.8861 41.2794 32.3969 40.2433 33.6583 38.8732C34.9492 37.4711 35.9297 35.7705 36.6 33.7712Z" fill="#2563EB"/>
</g>
</svg>
