<svg width="217" height="16" viewBox="0 0 217 16" fill="none" xmlns="http://www.w3.org/2000/svg">
<path d="M104.531 12.11C103.995 12.11 103.497 12.011 103.035 11.813C102.58 11.6077 102.18 11.329 101.836 10.977C101.491 10.6177 101.22 10.2033 101.022 9.734C100.831 9.25733 100.736 8.74767 100.736 8.205C100.736 7.655 100.831 7.14533 101.022 6.676C101.212 6.20667 101.48 5.796 101.825 5.444C102.169 5.092 102.569 4.817 103.024 4.619C103.478 4.421 103.973 4.322 104.509 4.322C105.044 4.322 105.539 4.421 105.994 4.619C106.456 4.817 106.859 5.092 107.204 5.444C107.548 5.796 107.816 6.21033 108.007 6.687C108.197 7.15633 108.293 7.666 108.293 8.216C108.293 8.75867 108.197 9.26833 108.007 9.745C107.816 10.2143 107.548 10.625 107.204 10.977C106.866 11.329 106.47 11.6077 106.016 11.813C105.561 12.011 105.066 12.11 104.531 12.11ZM104.509 11.329C105.081 11.329 105.587 11.1933 106.027 10.922C106.474 10.6507 106.822 10.2803 107.072 9.811C107.328 9.34167 107.457 8.80633 107.457 8.205C107.457 7.75767 107.383 7.347 107.237 6.973C107.09 6.59167 106.885 6.26167 106.621 5.983C106.357 5.697 106.045 5.477 105.686 5.323C105.334 5.169 104.941 5.092 104.509 5.092C103.944 5.092 103.438 5.22767 102.991 5.499C102.551 5.763 102.202 6.12967 101.946 6.599C101.696 7.06833 101.572 7.60367 101.572 8.205C101.572 8.65233 101.645 9.06667 101.792 9.448C101.938 9.82933 102.144 10.163 102.408 10.449C102.672 10.7277 102.983 10.944 103.343 11.098C103.702 11.252 104.091 11.329 104.509 11.329ZM110.371 8.612V7.93H112.571C113.07 7.93 113.451 7.80533 113.715 7.556C113.979 7.29933 114.111 6.95833 114.111 6.533C114.111 6.12233 113.979 5.78867 113.715 5.532C113.451 5.268 113.07 5.136 112.571 5.136H110.371V4.432H112.571C113.063 4.432 113.484 4.52367 113.836 4.707C114.188 4.883 114.456 5.12867 114.639 5.444C114.83 5.75933 114.925 6.11867 114.925 6.522C114.925 6.94 114.83 7.30667 114.639 7.622C114.456 7.93733 114.188 8.183 113.836 8.359C113.484 8.52767 113.063 8.612 112.571 8.612H110.371ZM109.854 12V4.432H110.657V12H109.854ZM114.43 12L111.592 8.502L112.373 8.249L115.464 12H114.43Z" fill="#2E2E2E"/>
<line y1="8.5" x2="43" y2="8.5" stroke="#E8DDD3"/>
<line x1="174" y1="8.5" x2="217" y2="8.5" stroke="#E8DDD3"/>
</svg>
