<svg width="16" height="16" viewBox="0 0 16 16" fill="none" xmlns="http://www.w3.org/2000/svg">
<path d="M6.5 0.849609C7.57364 0.849459 8.62511 1.15559 9.53125 1.73145C10.4375 2.30748 11.1615 3.13017 11.6172 4.10254C12.0728 5.07477 12.2416 6.1568 12.1045 7.22168C11.9731 8.24121 11.5632 9.20256 10.9258 10.0068L14.96 14.04C15.0749 14.1547 15.1429 14.3085 15.1504 14.4707C15.1578 14.6329 15.104 14.7923 15 14.917C14.8959 15.0416 14.7488 15.1228 14.5879 15.1445C14.4269 15.1662 14.2633 15.1268 14.1299 15.0342L14.1211 15.0273L14.0508 14.9707L14.0449 14.9658L14.04 14.96L10.0078 10.9268C9.33342 11.461 8.54686 11.8369 7.70508 12.0205C6.81879 12.2138 5.89899 12.1904 5.02344 11.9531C4.14771 11.7158 3.34132 11.2708 2.67383 10.6562C2.00657 10.0418 1.49719 9.27576 1.18848 8.42285C0.879731 7.56968 0.780762 6.65428 0.900391 5.75488C1.02002 4.85573 1.35419 3.99851 1.875 3.25586C2.39603 2.51306 3.08862 1.90601 3.89355 1.4873C4.69847 1.06862 5.5927 0.849795 6.5 0.849609ZM6.5 2.15039C5.34634 2.15039 4.2396 2.60809 3.42383 3.42383C2.60804 4.23961 2.14941 5.34631 2.14941 6.5C2.14941 7.65369 2.60804 8.76039 3.42383 9.57617C4.2396 10.3919 5.34634 10.8496 6.5 10.8496C7.65364 10.8496 8.76042 10.3919 9.57617 9.57617C10.3919 8.7604 10.8496 7.65366 10.8496 6.5C10.8496 5.34634 10.3919 4.2396 9.57617 3.42383C8.76042 2.60808 7.65364 2.15043 6.5 2.15039Z" fill="#636363" stroke="#636363" stroke-width="0.3"/>
</svg>
