<svg width="129" height="147" viewBox="0 0 129 147" fill="none" xmlns="http://www.w3.org/2000/svg">
<circle cx="64.5" cy="64.5" r="63.5" fill="white" stroke="#EDEDED" stroke-width="2"/>
<path d="M64.4994 64.5008C69.2491 64.5008 73.0994 60.6504 73.0994 55.9008C73.0994 51.1511 69.2491 47.3008 64.4994 47.3008C59.7498 47.3008 55.8994 51.1511 55.8994 55.9008C55.8994 60.6504 59.7498 64.5008 64.4994 64.5008Z" fill="#B8B8B8"/>
<path d="M64.4991 68.8008C55.8819 68.8008 48.8643 74.58 48.8643 81.7008C48.8643 82.1824 49.2427 82.5608 49.7243 82.5608H79.2739C79.7555 82.5608 80.1339 82.1824 80.1339 81.7008C80.1339 74.58 73.1163 68.8008 64.4991 68.8008Z" fill="#B8B8B8"/>
<path d="M21.42 144.1C20.9067 144.1 20.4467 143.987 20.04 143.76C19.64 143.527 19.3233 143.21 19.09 142.81C18.8567 142.403 18.74 141.943 18.74 141.43L18.74 137.06L19.68 137.06L19.68 141.41C19.68 141.777 19.7567 142.093 19.91 142.36C20.0633 142.627 20.27 142.833 20.53 142.98C20.7967 143.127 21.0933 143.2 21.42 143.2C21.76 143.2 22.0567 143.127 22.31 142.98C22.57 142.833 22.7733 142.627 22.92 142.36C23.0733 142.093 23.15 141.78 23.15 141.42L23.15 137.06L24.1 137.06L24.1 141.44C24.1 141.953 23.9833 142.41 23.75 142.81C23.5167 143.21 23.2 143.527 22.8 143.76C22.4 143.987 21.94 144.1 21.42 144.1ZM27.9862 144.1C27.6262 144.1 27.2995 144.027 27.0062 143.88C26.7195 143.727 26.4895 143.517 26.3162 143.25C26.1428 142.983 26.0462 142.68 26.0262 142.34L26.0262 140.91C26.0462 140.563 26.1428 140.26 26.3162 140C26.4962 139.733 26.7295 139.527 27.0162 139.38C27.3095 139.227 27.6328 139.15 27.9862 139.15C28.4195 139.15 28.8095 139.26 29.1562 139.48C29.5095 139.7 29.7862 139.997 29.9862 140.37C30.1862 140.743 30.2862 141.163 30.2862 141.63C30.2862 142.097 30.1862 142.517 29.9862 142.89C29.7862 143.263 29.5095 143.56 29.1562 143.78C28.8095 143.993 28.4195 144.1 27.9862 144.1ZM25.4862 145.99L25.4862 139.25L26.3862 139.25L26.3862 140.5L26.2162 141.65L26.3862 142.81L26.3862 145.99L25.4862 145.99ZM27.8362 143.25C28.1362 143.25 28.3995 143.18 28.6262 143.04C28.8528 142.9 29.0328 142.71 29.1662 142.47C29.2995 142.223 29.3662 141.94 29.3662 141.62C29.3662 141.307 29.2995 141.027 29.1662 140.78C29.0328 140.533 28.8528 140.343 28.6262 140.21C28.3995 140.07 28.1395 140 27.8462 140C27.5462 140 27.2828 140.07 27.0562 140.21C26.8295 140.343 26.6528 140.533 26.5262 140.78C26.3995 141.027 26.3362 141.31 26.3362 141.63C26.3362 141.943 26.3962 142.223 26.5162 142.47C26.6428 142.71 26.8195 142.9 27.0462 143.04C27.2795 143.18 27.5428 143.25 27.8362 143.25ZM31.3065 144L31.3065 136.86L32.2065 136.86L32.2065 144L31.3065 144ZM35.6933 144.1C35.2266 144.1 34.8066 143.99 34.4333 143.77C34.0599 143.55 33.7633 143.253 33.5433 142.88C33.3233 142.5 33.2133 142.077 33.2133 141.61C33.2133 141.15 33.3233 140.737 33.5433 140.37C33.7633 139.997 34.0599 139.7 34.4333 139.48C34.8066 139.26 35.2266 139.15 35.6933 139.15C36.1533 139.15 36.5699 139.26 36.9433 139.48C37.3233 139.693 37.6233 139.987 37.8433 140.36C38.0633 140.733 38.1733 141.15 38.1733 141.61C38.1733 142.077 38.0633 142.5 37.8433 142.88C37.6233 143.253 37.3233 143.55 36.9433 143.77C36.5699 143.99 36.1533 144.1 35.6933 144.1ZM35.6933 143.23C35.9933 143.23 36.2599 143.16 36.4933 143.02C36.7266 142.88 36.9099 142.69 37.0433 142.45C37.1766 142.203 37.2433 141.923 37.2433 141.61C37.2433 141.303 37.1733 141.03 37.0333 140.79C36.8999 140.55 36.7166 140.363 36.4833 140.23C36.2566 140.09 35.9933 140.02 35.6933 140.02C35.3933 140.02 35.1266 140.09 34.8933 140.23C34.6599 140.363 34.4766 140.55 34.3433 140.79C34.2099 141.03 34.1433 141.303 34.1433 141.61C34.1433 141.923 34.2099 142.203 34.3433 142.45C34.4766 142.69 34.6599 142.88 34.8933 143.02C35.1266 143.16 35.3933 143.23 35.6933 143.23ZM41.2073 144.1C40.774 144.1 40.3807 143.993 40.0273 143.78C39.674 143.56 39.394 143.263 39.1873 142.89C38.9873 142.517 38.8873 142.097 38.8873 141.63C38.8873 141.163 38.9873 140.743 39.1873 140.37C39.394 139.997 39.6707 139.7 40.0173 139.48C40.3707 139.26 40.7673 139.15 41.2073 139.15C41.5673 139.15 41.8873 139.227 42.1673 139.38C42.454 139.527 42.684 139.733 42.8573 140C43.0307 140.26 43.1273 140.563 43.1473 140.91L43.1473 142.34C43.1273 142.68 43.0307 142.983 42.8573 143.25C42.6907 143.517 42.464 143.727 42.1773 143.88C41.8973 144.027 41.574 144.1 41.2073 144.1ZM41.3573 143.25C41.804 143.25 42.164 143.1 42.4373 142.8C42.7107 142.493 42.8473 142.103 42.8473 141.63C42.8473 141.303 42.784 141.02 42.6573 140.78C42.5373 140.533 42.364 140.343 42.1373 140.21C41.9107 140.07 41.6473 140 41.3473 140C41.0473 140 40.7807 140.07 40.5473 140.21C40.3207 140.35 40.1407 140.543 40.0073 140.79C39.8807 141.03 39.8173 141.307 39.8173 141.62C39.8173 141.94 39.8807 142.223 40.0073 142.47C40.1407 142.71 40.324 142.9 40.5573 143.04C40.7907 143.18 41.0573 143.25 41.3573 143.25ZM42.7873 144L42.7873 142.72L42.9573 141.56L42.7873 140.41L42.7873 139.25L43.6973 139.25L43.6973 144L42.7873 144ZM47.0177 144.1C46.5777 144.1 46.1843 143.993 45.8377 143.78C45.491 143.56 45.2143 143.263 45.0077 142.89C44.8077 142.517 44.7077 142.097 44.7077 141.63C44.7077 141.163 44.8077 140.743 45.0077 140.37C45.2143 139.997 45.491 139.7 45.8377 139.48C46.1843 139.26 46.5777 139.15 47.0177 139.15C47.371 139.15 47.691 139.227 47.9777 139.38C48.2643 139.527 48.4943 139.733 48.6677 140C48.8477 140.26 48.9477 140.563 48.9677 140.91L48.9677 142.34C48.9477 142.68 48.851 142.983 48.6777 143.25C48.5043 143.517 48.2743 143.727 47.9877 143.88C47.701 144.027 47.3777 144.1 47.0177 144.1ZM47.1677 143.25C47.4677 143.25 47.7277 143.18 47.9477 143.04C48.1743 142.9 48.351 142.71 48.4777 142.47C48.6043 142.223 48.6677 141.943 48.6677 141.63C48.6677 141.303 48.601 141.02 48.4677 140.78C48.341 140.54 48.1643 140.35 47.9377 140.21C47.7177 140.07 47.4577 140 47.1577 140C46.8577 140 46.5943 140.07 46.3677 140.21C46.141 140.35 45.961 140.543 45.8277 140.79C45.701 141.03 45.6377 141.307 45.6377 141.62C45.6377 141.94 45.701 142.223 45.8277 142.47C45.961 142.71 46.141 142.9 46.3677 143.04C46.601 143.18 46.8677 143.25 47.1677 143.25ZM49.5177 144L48.6077 144L48.6077 142.72L48.7777 141.56L48.6077 140.41L48.6077 136.86L49.5177 136.86L49.5177 144ZM53.698 141.3L53.698 140.48L55.588 140.48C55.848 140.48 56.078 140.427 56.278 140.32C56.4847 140.213 56.6447 140.063 56.758 139.87C56.878 139.677 56.938 139.447 56.938 139.18C56.938 138.913 56.878 138.683 56.758 138.49C56.6447 138.297 56.4847 138.147 56.278 138.04C56.078 137.933 55.848 137.88 55.588 137.88L53.698 137.88L53.698 137.06L55.648 137.06C56.0747 137.06 56.4547 137.147 56.788 137.32C57.128 137.493 57.3947 137.74 57.588 138.06C57.788 138.373 57.888 138.747 57.888 139.18C57.888 139.607 57.788 139.98 57.588 140.3C57.3947 140.613 57.128 140.86 56.788 141.04C56.4547 141.213 56.0747 141.3 55.648 141.3L53.698 141.3ZM53.068 144L53.068 137.06L54.008 137.06L54.008 144L53.068 144ZM58.9725 144L58.9725 139.25L59.8725 139.25L59.8725 144L58.9725 144ZM59.8725 141.29L59.5325 141.14C59.5325 140.533 59.6725 140.05 59.9525 139.69C60.2325 139.33 60.6358 139.15 61.1625 139.15C61.4025 139.15 61.6192 139.193 61.8125 139.28C62.0058 139.36 62.1858 139.497 62.3525 139.69L61.7625 140.3C61.6625 140.193 61.5525 140.117 61.4325 140.07C61.3125 140.023 61.1725 140 61.0125 140C60.6792 140 60.4058 140.107 60.1925 140.32C59.9792 140.533 59.8725 140.857 59.8725 141.29ZM64.9999 144.1C64.5333 144.1 64.1133 143.99 63.7399 143.77C63.3666 143.55 63.0699 143.253 62.8499 142.88C62.6299 142.5 62.5199 142.077 62.5199 141.61C62.5199 141.15 62.6299 140.737 62.8499 140.37C63.0699 139.997 63.3666 139.7 63.7399 139.48C64.1133 139.26 64.5333 139.15 64.9999 139.15C65.4599 139.15 65.8766 139.26 66.2499 139.48C66.6299 139.693 66.9299 139.987 67.1499 140.36C67.3699 140.733 67.4799 141.15 67.4799 141.61C67.4799 142.077 67.3699 142.5 67.1499 142.88C66.9299 143.253 66.6299 143.55 66.2499 143.77C65.8766 143.99 65.4599 144.1 64.9999 144.1ZM64.9999 143.23C65.2999 143.23 65.5666 143.16 65.7999 143.02C66.0333 142.88 66.2166 142.69 66.3499 142.45C66.4833 142.203 66.5499 141.923 66.5499 141.61C66.5499 141.303 66.4799 141.03 66.3399 140.79C66.2066 140.55 66.0233 140.363 65.7899 140.23C65.5633 140.09 65.2999 140.02 64.9999 140.02C64.6999 140.02 64.4333 140.09 64.1999 140.23C63.9666 140.363 63.7833 140.55 63.6499 140.79C63.5166 141.03 63.4499 141.303 63.4499 141.61C63.4499 141.923 63.5166 142.203 63.6499 142.45C63.7833 142.69 63.9666 142.88 64.1999 143.02C64.4333 143.16 64.6999 143.23 64.9999 143.23ZM69.0275 144L69.0275 138.39C69.0275 138.077 69.0942 137.8 69.2275 137.56C69.3675 137.313 69.5608 137.12 69.8075 136.98C70.0542 136.833 70.3375 136.76 70.6575 136.76C70.9042 136.76 71.1208 136.803 71.3075 136.89C71.4942 136.97 71.6675 137.083 71.8275 137.23L71.2375 137.82C71.1508 137.747 71.0608 137.693 70.9675 137.66C70.8742 137.62 70.7708 137.6 70.6575 137.6C70.4242 137.6 70.2442 137.673 70.1175 137.82C69.9908 137.96 69.9275 138.15 69.9275 138.39L69.9275 144L69.0275 144ZM67.8575 140.07L67.8575 139.25L72.3675 139.25L72.3675 140.07L67.8575 140.07ZM71.8475 144L71.8475 139.25L72.7575 139.25L72.7575 144L71.8475 144ZM72.2975 138.75C72.1375 138.75 72.0042 138.697 71.8975 138.59C71.7908 138.477 71.7375 138.337 71.7375 138.17C71.7375 138.01 71.7908 137.877 71.8975 137.77C72.0042 137.657 72.1375 137.6 72.2975 137.6C72.4708 137.6 72.6075 137.657 72.7075 137.77C72.8142 137.877 72.8675 138.01 72.8675 138.17C72.8675 138.337 72.8142 138.477 72.7075 138.59C72.6075 138.697 72.4708 138.75 72.2975 138.75ZM74.0799 144L74.0799 136.86L74.9799 136.86L74.9799 144L74.0799 144ZM78.4967 144.1C78.0234 144.1 77.5967 143.993 77.2167 143.78C76.8367 143.56 76.5367 143.263 76.3167 142.89C76.0967 142.517 75.9867 142.093 75.9867 141.62C75.9867 141.153 76.0934 140.733 76.3067 140.36C76.5267 139.987 76.8201 139.693 77.1867 139.48C77.5601 139.26 77.9767 139.15 78.4367 139.15C78.8767 139.15 79.2634 139.25 79.5967 139.45C79.9367 139.65 80.2001 139.927 80.3867 140.28C80.5801 140.633 80.6767 141.033 80.6767 141.48C80.6767 141.547 80.6734 141.62 80.6667 141.7C80.6601 141.773 80.6467 141.86 80.6267 141.96L76.6167 141.96L76.6167 141.21L80.1467 141.21L79.8167 141.5C79.8167 141.18 79.7601 140.91 79.6467 140.69C79.5334 140.463 79.3734 140.29 79.1667 140.17C78.9601 140.043 78.7101 139.98 78.4167 139.98C78.1101 139.98 77.8401 140.047 77.6067 140.18C77.3734 140.313 77.1934 140.5 77.0667 140.74C76.9401 140.98 76.8767 141.263 76.8767 141.59C76.8767 141.923 76.9434 142.217 77.0767 142.47C77.2101 142.717 77.4001 142.91 77.6467 143.05C77.8934 143.183 78.1767 143.25 78.4967 143.25C78.7634 143.25 79.0067 143.203 79.2267 143.11C79.4534 143.017 79.6467 142.877 79.8067 142.69L80.3867 143.28C80.1601 143.547 79.8801 143.75 79.5467 143.89C79.2201 144.03 78.8701 144.1 78.4967 144.1ZM84.5281 141.3L84.5281 140.48L86.4181 140.48C86.6781 140.48 86.9081 140.427 87.1081 140.32C87.3148 140.213 87.4748 140.063 87.5881 139.87C87.7081 139.677 87.7681 139.447 87.7681 139.18C87.7681 138.913 87.7081 138.683 87.5881 138.49C87.4748 138.297 87.3148 138.147 87.1081 138.04C86.9081 137.933 86.6781 137.88 86.4181 137.88L84.5281 137.88L84.5281 137.06L86.4781 137.06C86.9048 137.06 87.2848 137.147 87.6181 137.32C87.9581 137.493 88.2248 137.74 88.4181 138.06C88.6181 138.373 88.7181 138.747 88.7181 139.18C88.7181 139.607 88.6181 139.98 88.4181 140.3C88.2248 140.613 87.9581 140.86 87.6181 141.04C87.2848 141.213 86.9048 141.3 86.4781 141.3L84.5281 141.3ZM83.8981 144L83.8981 137.06L84.8381 137.06L84.8381 144L83.8981 144ZM93.1626 144L93.1626 141.23C93.1626 140.87 93.0492 140.573 92.8226 140.34C92.5959 140.107 92.3026 139.99 91.9426 139.99C91.7026 139.99 91.4892 140.043 91.3026 140.15C91.1159 140.257 90.9692 140.403 90.8626 140.59C90.7559 140.777 90.7026 140.99 90.7026 141.23L90.3326 141.02C90.3326 140.66 90.4126 140.34 90.5726 140.06C90.7326 139.78 90.9559 139.56 91.2426 139.4C91.5292 139.233 91.8526 139.15 92.2126 139.15C92.5726 139.15 92.8892 139.23 93.1626 139.39C93.4426 139.55 93.6626 139.773 93.8226 140.06C93.9826 140.347 94.0626 140.677 94.0626 141.05L94.0626 144L93.1626 144ZM89.8026 144L89.8026 136.86L90.7026 136.86L90.7026 144L89.8026 144ZM97.4511 144.1C96.9844 144.1 96.5644 143.99 96.1911 143.77C95.8178 143.55 95.5211 143.253 95.3011 142.88C95.0811 142.5 94.9711 142.077 94.9711 141.61C94.9711 141.15 95.0811 140.737 95.3011 140.37C95.5211 139.997 95.8178 139.7 96.1911 139.48C96.5644 139.26 96.9844 139.15 97.4511 139.15C97.9111 139.15 98.3278 139.26 98.7011 139.48C99.0811 139.693 99.3811 139.987 99.6011 140.36C99.8211 140.733 99.9311 141.15 99.9311 141.61C99.9311 142.077 99.8211 142.5 99.6011 142.88C99.3811 143.253 99.0811 143.55 98.7011 143.77C98.3278 143.99 97.9111 144.1 97.4511 144.1ZM97.4511 143.23C97.7511 143.23 98.0178 143.16 98.2511 143.02C98.4844 142.88 98.6678 142.69 98.8011 142.45C98.9344 142.203 99.0011 141.923 99.0011 141.61C99.0011 141.303 98.9311 141.03 98.7911 140.79C98.6578 140.55 98.4744 140.363 98.2411 140.23C98.0144 140.09 97.7511 140.02 97.4511 140.02C97.1511 140.02 96.8844 140.09 96.6511 140.23C96.4178 140.363 96.2344 140.55 96.1011 140.79C95.9678 141.03 95.9011 141.303 95.9011 141.61C95.9011 141.923 95.9678 142.203 96.1011 142.45C96.2344 142.69 96.4178 142.88 96.6511 143.02C96.8844 143.16 97.1511 143.23 97.4511 143.23ZM101.529 144L101.529 137.26L102.429 137.26L102.429 144L101.529 144ZM100.359 140.07L100.359 139.25L103.599 139.25L103.599 140.07L100.359 140.07ZM106.504 144.1C106.037 144.1 105.617 143.99 105.244 143.77C104.87 143.55 104.574 143.253 104.354 142.88C104.134 142.5 104.024 142.077 104.024 141.61C104.024 141.15 104.134 140.737 104.354 140.37C104.574 139.997 104.87 139.7 105.244 139.48C105.617 139.26 106.037 139.15 106.504 139.15C106.964 139.15 107.38 139.26 107.754 139.48C108.134 139.693 108.434 139.987 108.654 140.36C108.874 140.733 108.984 141.15 108.984 141.61C108.984 142.077 108.874 142.5 108.654 142.88C108.434 143.253 108.134 143.55 107.754 143.77C107.38 143.99 106.964 144.1 106.504 144.1ZM106.504 143.23C106.804 143.23 107.07 143.16 107.304 143.02C107.537 142.88 107.72 142.69 107.854 142.45C107.987 142.203 108.054 141.923 108.054 141.61C108.054 141.303 107.984 141.03 107.844 140.79C107.71 140.55 107.527 140.363 107.294 140.23C107.067 140.09 106.804 140.02 106.504 140.02C106.204 140.02 105.937 140.09 105.704 140.23C105.47 140.363 105.287 140.55 105.154 140.79C105.02 141.03 104.954 141.303 104.954 141.61C104.954 141.923 105.02 142.203 105.154 142.45C105.287 142.69 105.47 142.88 105.704 143.02C105.937 143.16 106.204 143.23 106.504 143.23Z" fill="#77797D"/>
</svg>
