<svg width="375" height="812" viewBox="0 0 375 812" fill="none" xmlns="http://www.w3.org/2000/svg">
<g clip-path="url(#clip0_1730_10297)">
<rect width="375" height="812" fill="#F4F7FB"/>
<path opacity="0.9" d="M106.892 733.131C106.499 734.411 106.301 735.491 105.876 736.76C104.901 739.673 106.015 742.041 104.621 744.777C104.089 745.82 103.055 747.423 102.26 748.282C100.235 750.466 98.6047 751.348 95.9114 752.613C94.157 753.437 91.8277 755.621 90.1736 756.632C89.9084 756.794 89.6331 756.966 89.4729 757.233C89.043 757.948 89.6405 758.819 90.158 759.473C91.8906 761.664 90.8971 762.863 93.309 765.092C93.7117 765.464 93.8625 767.696 93.6279 768.192C93.4102 768.653 92.6058 769.259 92.1877 769.548C89.5575 771.371 87.2428 772.747 84.3597 774.133C83.7041 774.447 82.2421 775.066 81.5537 774.832C81.1563 774.697 81.2336 773.525 81.1442 773.114C80.7526 771.317 79.948 771.165 80.9748 770.015C81.8609 769.023 82.664 767.709 83.9154 766.811C84.1529 766.64 84.2703 765.977 84.2559 765.685C84.2444 765.456 84.088 764.657 83.9788 764.456C83.1538 762.927 81.8193 762.62 81.3011 761.091C79.9253 762.76 79.9669 765.282 78.5701 766.933C77.7958 767.849 76.6286 768.428 76.0632 769.486C75.4082 770.712 75.6985 772.347 74.8305 773.432C74.4256 773.938 73.8264 774.242 73.2389 774.512C70.4169 775.812 67.4097 776.707 64.3375 777.161C64.1253 777.192 63.8843 777.214 63.7196 777.076C63.5633 776.945 63.5349 776.721 63.4768 776.525C63.2936 775.91 62.7456 775.479 62.4429 774.912C61.6864 773.497 62.275 772.441 63.5417 771.459C64.8084 770.477 67.4584 769.55 68.5347 768.36C70.514 766.173 70.3541 763.055 72.0468 760.805C72.3608 760.388 72.899 760.114 73.0625 759.617C73.1858 759.242 73.1569 757.635 73.1471 757.24C73.1288 756.491 73.1569 756.118 73.5708 755.495C73.7414 755.238 74.1568 754.861 74.2471 754.566C74.4003 754.067 73.8656 753.843 73.6682 753.36C72.9282 751.549 72.6966 750.584 73.4856 748.794C74.1922 747.191 76.2075 745.573 77.2514 744.167C77.9082 743.282 78.3131 742.123 79.1133 741.366C80.2906 740.252 81.4717 739.563 82.1571 738.093C80.9317 738.113 79.7063 738.133 78.4809 738.153C78.1523 738.158 77.8159 738.165 77.5084 738.281C77.0608 738.451 76.7271 738.832 76.4589 739.229C75.178 741.127 75.0134 743.154 73.5702 744.931C72.1132 746.725 70.3544 747.181 67.4454 748.442C66.1315 749.012 65.4992 748.888 64.0923 748.624C63.6491 748.541 62.7347 749.053 62.3151 749.218C61.3034 749.617 61.1638 750.79 60.5386 751.682C60.0151 752.428 58.7378 752.353 57.9146 752.741C57.1589 753.098 56.5913 753.304 55.7565 753.336C55.2534 753.355 53.9729 753.967 53.5141 753.76C52.7962 753.436 52.8162 752.7 52.844 752.011C44.4229 758.115 15.0735 777.785 14.8823 777.911C12.2554 779.646 7.01213 777.996 4.98093 777.185C2.95002 776.374 3.79626 775.11 4.64249 774.176C5.48873 773.242 8.45645 775.087 9.46615 775.364C11.1209 775.819 14.016 776.375 15.7813 775.572C16.3989 775.292 45.9133 754.966 52.3919 750.503C51.7213 749.683 51.8685 748.258 52.2359 747.927C53.3447 746.926 53.9389 745.267 55.2912 744.931C57.1368 744.473 57.0067 743.04 58.3725 743.042C58.9503 743.042 59.5366 743.165 60.1001 743.037C60.5902 742.925 61.0175 742.633 61.4314 742.347C62.8988 741.333 64.3661 740.318 65.8337 739.303C67.4681 738.173 67.0045 735.5 67.345 733.539C67.6973 731.51 68.2689 729.527 68.8395 727.549C69.0564 726.797 69.5247 726.648 69.6214 725.872C69.7377 724.94 70.3532 724.158 70.9454 723.43C71.3496 722.933 71.7539 722.436 72.1581 721.939C72.4464 721.585 72.7512 721.179 72.709 720.723C72.6963 720.587 72.6355 720.437 72.5063 720.394C72.4307 720.369 72.3481 720.387 72.2717 720.409C71.853 720.529 71.4166 720.781 71.0112 720.621C70.73 720.51 70.5583 720.23 70.4066 719.968C70.1107 719.457 69.6486 719.349 69.3529 718.838C69.1671 718.517 68.9496 718.171 68.5958 718.063C68.3981 718.002 68.1851 718.028 67.9803 717.999C67.7756 717.971 67.554 717.862 67.5056 717.66C67.4852 717.575 67.9381 716.103 67.8372 715.662C67.7404 715.24 67.4064 714.894 67.3504 714.464C67.3099 714.156 67.4167 713.829 67.3029 713.541C67.1524 713.159 66.6944 713.015 66.4041 712.726C65.9482 712.271 65.9677 711.539 66.0182 710.896C66.1046 709.796 66.1961 708.674 66.6198 707.656C66.808 707.203 67.0594 706.779 67.3542 706.388C67.736 705.882 68.1939 705.429 68.7253 705.084C70.4243 703.983 72.6476 703.756 74.6112 704.243C76.5752 704.729 78.3411 706.227 78.8347 708.195C79.018 708.925 79.0271 709.689 79.1977 710.422C79.4007 711.296 79.8353 712.114 80.4446 712.771C80.675 713.019 80.9931 713.261 81.32 713.175C81.5248 713.121 81.6747 712.949 81.8072 712.784C82.3755 712.075 82.9063 711.283 83.7139 710.868C84.9997 710.208 86.5848 710.711 87.8058 711.486C89.0267 712.26 90.0966 713.301 91.4403 713.833C91.9204 714.023 92.5105 714.233 92.6079 714.741C92.6451 714.935 92.597 715.133 92.5822 715.329C92.5152 716.215 93.1248 717.008 93.7893 717.596C94.4538 718.184 95.2248 718.689 95.6777 719.453C96.261 720.437 96.1793 721.775 95.4806 722.68C96.7095 722.866 97.8449 723.334 98.8535 724.063C99.1338 724.265 99.4049 724.489 99.7245 724.62C100.253 724.837 100.847 724.778 101.415 724.834C102.386 724.93 103.286 726.465 104.163 726.893C105.662 727.624 107.138 728.179 107.844 729.694C108.409 730.906 107.285 731.851 106.892 733.131ZM3.72456 780.001C1.66739 780.001 0 780.268 0 780.598V782.403C0 782.733 1.66769 783 3.72456 783C5.78172 783 7.44911 782.733 7.44911 782.403V780.598C7.44941 780.268 5.78172 780.001 3.72456 780.001Z" fill="#EFECF2"/>
<path opacity="0.9" d="M253.358 706.615C253.358 708.059 252.269 709.23 250.925 709.23C249.581 709.23 248.492 708.059 248.492 706.615C248.492 705.171 249.581 704 250.925 704C252.269 704 253.358 705.171 253.358 706.615ZM285.974 772.981C285.529 774.466 283.132 774.586 281.705 774.504C279.794 774.394 279.06 774.72 278.072 773.701C277.143 772.742 277.492 771.877 274.49 770.181C271.925 768.732 269.046 767.277 266.897 765.562C265.803 764.689 264.13 763.282 262.96 762.532C262.281 762.098 261.873 762.303 261.327 761.86C260.864 761.485 258.87 758.938 258.217 758.399C257.433 759.007 255.849 759.859 255.042 760.464C254.266 761.047 252.972 762.464 252.057 762.641C250.976 762.85 250.215 761.451 249.198 761.836C248.353 762.155 247.867 762.616 247.927 762.989C248.196 764.649 249.046 767.389 249.046 769.649C249.046 772.472 248.772 776.578 248.893 779.343C248.96 780.876 249.479 781.679 249.18 782.196C248.509 783.359 247.122 782.918 244.169 782.917C243.551 782.917 240.927 782.878 240.501 782.292C239.93 781.507 240.109 781.123 240.68 780.754C241.225 780.401 243.848 779.787 244.214 779.216C244.748 778.381 244.565 776.822 244.437 775.85C243.9 771.746 241.254 762 241.557 760.944C242.038 759.262 243.273 756.767 244.169 755.274C244.163 755.417 243.128 754.394 243.179 753.743C243.227 753.124 244.01 752.781 244.344 752.341C244.678 751.903 244.894 751.363 245.198 750.898C245.958 749.735 246.655 748.589 247.175 747.28C247.627 746.142 248.574 744.519 248.367 743.248C247.472 743.476 246.712 743.544 245.786 743.544C244.464 743.544 238.567 739.944 235.467 737.011L234.908 738.407L233 737.525L233.917 735.233C233.732 734.939 233.609 734.667 233.565 734.426C233.243 732.654 233.734 731.041 235.1 730.978C235.104 730.557 235.18 730.137 235.278 729.759C235.563 728.663 236.557 728.95 236.599 728.956C236.899 728.278 237.264 725.785 236.706 725.035C234.744 722.397 233.952 718.776 235.467 714.989C237.285 710.447 241.66 708.106 245.24 709.761C248.821 711.415 250.249 716.438 248.432 720.98C246.893 724.826 243.521 726.729 240.328 726.765C239.077 726.779 238.323 728.866 238.078 729.541C238.335 729.69 238.47 729.81 238.799 730.147C239.828 731.205 243.163 730.936 244.066 730.888C245.013 730.838 246.486 730.052 247.706 729.486C247.747 729.059 247.788 728.631 247.837 728.207C247.938 727.33 248.064 726.148 248.597 725.415C249.087 724.74 249.879 724.594 250.591 724.292C251.537 723.89 251.722 723.742 251.946 722.718C252.388 720.696 252.005 721.357 251.147 719.523C250.331 717.777 250.486 713.471 252.045 712.394C253.019 711.721 255.488 709.946 256.606 710.948C256.697 710.731 256.819 711.284 256.903 711.045C258.068 712.005 259.425 712.895 260.076 714.407C260.453 715.281 260.537 716.062 260.456 716.999C260.318 718.608 259.856 719.331 259.286 720.734C258.911 721.657 258.998 723.345 259.631 724.025C261.063 725.563 262.798 727.042 263.495 728.393C264.279 729.912 265.974 736.591 265.984 737.967C266.334 738.537 266.639 740.639 266.69 741.299C266.757 742.184 266.709 743.926 266.992 744.771C267.223 745.458 267.643 746.005 267.844 746.726C268.024 747.372 268.788 749.506 268.586 750.088C268.297 750.919 266.674 751.009 266.537 751.913C266.447 752.498 267.168 753.098 267.389 753.592C267.609 754.081 267.695 754.629 267.813 755.173C267.956 755.83 268.198 756.532 268.153 757.213C268.109 757.878 267.802 758.406 267.881 759.097C270.681 760.242 273.314 761.968 275.274 764.423C276.228 765.618 280.052 769.771 280.854 770.177C282.03 770.77 286.377 771.635 285.974 772.981ZM246.854 735.947C246.853 735.404 246.916 734.912 247.002 734.422C245.992 734.685 245.024 734.889 244.373 734.915C243.038 734.968 239.176 734.305 237.075 733.487C237.562 736.017 245.325 738.155 245.997 737.861C246.915 737.459 246.856 736.977 246.854 735.947Z" fill="#EFECF2"/>
<g opacity="0.7">
<path d="M209.77 749.911C209.015 750.002 207.976 750.46 207.598 750.185C207.221 749.911 204.671 748.813 203.255 747.074C201.838 745.335 193.245 743.231 190.317 742.133C190.317 742.133 189.75 738.747 189.562 737.374C189.373 736.002 190.789 736.642 190.412 735.453C190.034 734.263 188.995 732.433 189.562 729.688C190.128 726.942 190.789 723.557 190.317 720.902C189.845 718.249 189.939 718.066 189.372 717.151C188.806 716.235 187.673 712.667 188.145 711.386C188.617 710.104 202.121 706.902 203.065 705.255C204.01 703.608 200.327 699.398 199.382 698.117C198.438 696.836 199.288 696.745 199.288 696.47C199.288 696.196 194.661 694.091 193.528 691.529C192.394 688.966 189.089 685.947 187.483 685.672C185.878 685.397 181.534 684.94 180.212 684.299C178.89 683.658 178.512 683.476 178.607 681.646C178.701 679.815 178.323 677.344 178.418 676.064C178.512 674.782 177.757 672.952 176.34 671.671C174.924 670.39 172.563 669.841 171.524 669.109C170.485 668.377 167.369 671.58 166.236 671.671C166.236 671.671 165.103 674.142 165.764 675.24C166.425 676.338 165.48 678.26 166.236 678.9C166.992 679.541 166.141 681.188 166.897 681.737C167.652 682.286 168.313 683.019 168.408 683.933C168.502 684.849 169.069 685.672 169.73 686.404C170.391 687.137 166.011 688.051 165.556 689.058C165.102 690.065 162.93 693.725 162.364 695.281C161.797 696.837 161.136 697.935 161.041 698.85C160.947 699.765 159.625 703.517 159.247 704.524C158.869 705.53 158.208 706.537 157.548 706.628C156.887 706.72 148.576 706.994 147.632 706.628C146.687 706.262 145.176 705.622 143.477 706.171C141.777 706.72 141.399 706.994 140.832 707.543C140.266 708.092 141.21 709.19 140.832 709.648C140.455 710.105 141.493 710.655 142.06 711.387C142.627 712.119 143.004 712.577 145.082 711.844C147.16 711.112 147.632 710.472 148.198 710.655C148.765 710.838 159.247 714.142 161.041 712.215C162.835 710.289 163.025 708.001 163.686 707.269C164.346 706.536 165.197 706.903 165.197 706.903C165.197 706.903 167.274 703.426 167.746 702.968C167.746 702.968 169.015 704.157 169.797 707.544C170.58 710.93 170.296 713.401 171.146 714.864C171.996 716.329 171.618 722.551 172.468 724.107C173.318 725.663 173.507 726.486 173.223 727.951C172.94 729.415 169.918 736.736 168.502 738.291C167.085 739.847 164.913 743.965 164.724 745.704C164.536 747.442 163.402 760.437 162.647 763.548C161.891 766.66 160.475 768.764 159.53 769.862C158.586 770.96 154.242 771.052 153.392 769.862C152.542 768.673 149.992 768.581 149.331 769.405C148.67 770.228 149.237 770.869 149.237 771.144C149.237 771.418 148.764 771.578 149.142 771.853C149.52 772.127 150.087 772.791 150.276 772.516C150.464 772.242 150.996 772.981 150.996 772.981L150.961 773.356C150.961 773.356 151.787 774.529 152.259 774.529C152.731 774.529 153.014 774.712 153.014 775.078C153.014 775.444 153.014 775.444 153.486 775.81C154.048 776.246 154.371 775.547 154.844 776.096C155.316 776.645 156.634 777.457 156.996 778.189C157.358 778.921 157.641 779.196 157.925 779.287C158.208 779.379 158.869 779.379 158.869 779.745C158.869 780.111 160.097 780.568 160.38 780.477C160.664 780.386 161.608 780.775 161.891 780.489C162.174 780.203 163.875 777.732 164.158 776.36C164.441 774.987 164.441 771.601 165.008 770.96C165.574 770.32 172.563 759.338 172.94 755.312C173.318 751.286 172.903 749.181 173.346 748.266C173.79 747.351 177.568 743.416 178.229 742.226C178.89 741.037 179.645 741.494 179.645 741.494C179.645 741.494 181.723 746.985 182.856 747.808C183.989 748.632 192.394 750.371 195.416 751.56C198.438 752.75 202.782 755.22 203.538 756.685C204.293 758.149 203.443 762.084 202.971 763.365C202.499 764.646 203.194 765.378 203.838 765.47C204.482 765.561 207.409 762.633 208.165 761.077C208.92 759.522 209.582 757.508 210.526 756.777C211.471 756.044 213.076 754.946 212.982 752.933C212.887 750.918 210.526 749.82 209.77 749.911ZM189.845 699.855C189.845 699.855 193.339 702.601 194.283 702.875C195.227 703.15 187.389 706.444 187.389 706.444C187.389 706.444 188.428 701.228 189.845 699.855Z" fill="#EFECF2"/>
<path d="M136.122 783.312C140.607 783.312 144.243 779.789 144.243 775.442C144.243 771.096 140.607 767.573 136.122 767.573C131.636 767.573 128 771.096 128 775.442C128 779.789 131.636 783.312 136.122 783.312Z" fill="#EFECF2"/>
</g>
<path opacity="0.6" d="M350.032 773.797C348.499 772.587 347.322 773.652 345.81 772.415C344.878 771.654 344.137 769.491 344.08 768.29C344.024 767.088 343.502 764.478 343.224 763.307C342.208 759.02 341.782 756.683 338.925 753.176C338.381 752.508 337.342 750.681 337.128 749.846C336.913 749.011 338.795 748.417 339.591 748.085C340.487 747.712 338.745 746.051 338.304 745.186C337.862 744.321 337.218 743.563 336.853 742.664C336.208 741.073 336.515 739.266 336.22 737.575C335.938 735.958 335.104 734.447 335.043 732.806C335.002 731.729 335.299 730.671 335.46 729.605C335.682 728.14 335.645 726.635 335.352 725.182C334.884 722.854 333.644 720.751 333.038 718.455C333.592 718.554 334.15 718.199 334.451 717.723C334.752 717.248 335.889 717.68 335.956 717.121C336.119 715.77 337.37 715.428 337.594 714.085C338.227 710.299 335.954 707.295 336.775 703.545C337.408 700.653 337.034 690.935 338.72 688.502C338.631 685.982 338.021 685.006 338.979 682.673C340.616 678.682 338.88 678.002 339.956 674.669C340.214 673.867 340.579 673.1 340.789 672.284C341.174 670.786 341.034 669.137 341.752 667.767C341.364 666.7 341.7 665.666 342.068 664.592C342.435 663.517 342.959 662.494 343.22 661.389C343.47 660.334 343.473 659.239 343.474 658.155C343.479 654.05 343.485 649.944 343.49 645.838C343.492 644.408 344.405 643.189 345.094 641.935C345.999 640.289 346.345 638.354 346.119 636.492C346.166 636.131 346.193 635.764 346.193 635.391C346.193 630.757 342.435 627 337.799 627C333.163 627 329.405 630.757 329.405 635.391C329.405 639.309 332.091 642.6 335.724 643.524C335.844 643.667 335.971 643.802 336.104 643.927C336.925 644.7 337.941 645.274 338.629 646.168C339.999 647.95 339.706 650.514 338.882 652.606C338.058 654.697 336.773 656.62 336.286 658.814C335.949 660.327 336.009 661.897 335.856 663.439C335.547 666.536 334.352 669.539 332.448 672.001C331.231 671.782 330.041 670.64 328.842 670.338C326.287 669.693 323.286 671.202 321.97 673.484C320.655 675.767 320.704 679.279 321.855 682.119C322.048 682.595 321.054 682.762 320.715 683.149C320.613 683.264 320.573 683.932 320.435 683.999C319.636 684.386 319.004 683.984 318.349 683.385C317.693 682.787 316.662 682.275 315.904 681.812C314.087 680.699 311.836 680.869 309.716 680.643C305.376 680.18 304.665 676.693 301.048 674.252C298.715 672.677 294.558 670.586 291.996 669.419C288.574 667.859 284.855 664.749 281.892 662.432C279.315 660.417 278.398 659.846 274.919 659.669C273.409 659.593 272.33 659.819 272.129 660.181C271.492 661.327 273.434 661.409 273.204 661.537C272.121 661.545 272.066 661.742 272.206 662.304C272.446 663.272 272.394 663.484 273.382 663.62C272.594 663.696 272.564 664.274 273 664.734C273.331 665.085 273.981 665.193 274.417 665.402C273.102 665.579 273.258 666.608 273.946 666.883C274.635 667.159 276.017 667.132 277.299 667.19C280.664 667.344 285.404 671.678 290.569 675.863C293.521 678.256 296.869 682.311 300.608 682.995C301.242 683.111 301.907 683.146 302.482 683.435C303.507 683.952 303.987 685.125 304.735 685.996C306.997 688.626 311.772 688.567 313.153 691.749C314.07 693.861 312.931 696.232 312.489 698.491C312.16 700.174 312.229 701.905 312.15 703.618C311.886 709.335 308.583 714.392 309.11 717.769C309.403 719.646 306.079 721.885 305.195 722.911C302.699 725.804 302.332 730.121 301.678 733.884C301.024 737.647 300.881 741.485 300.234 745.25C299.934 746.994 299.526 748.72 299.013 750.413C298.93 750.688 298.843 750.98 298.915 751.258C298.982 751.513 299.171 751.716 299.369 751.888C299.966 752.412 300.704 752.775 301.484 752.93C302.087 753.048 302.823 753.117 303.094 753.667C303.211 753.904 303.207 754.18 303.203 754.443C303.123 759.683 303.726 763.964 304.734 771.392C305.601 777.782 305.597 780.979 305.041 786.025C304.484 791.072 303.618 795.251 299.909 798.721C299.507 799.097 299.045 799.558 299.139 800.1C299.265 800.828 300.218 801 300.957 801C302.98 800.999 305.134 800.935 306.81 799.802C309.155 798.215 310.089 794.835 312.756 793.887C313.939 793.467 315.555 793.408 315.95 792.216C316.152 791.605 315.904 790.946 315.659 790.351C314.862 788.415 314.028 786.423 312.537 784.955C312.228 784.651 311.887 784.364 311.693 783.977C311.534 783.658 311.487 783.296 311.466 782.941C311.372 781.374 311.725 779.821 312.015 778.279C313.184 772.058 313.347 765.649 312.493 759.378C312.262 757.676 311.987 755.812 312.891 754.352C315.191 754.511 317.147 752.801 318.809 751.204C319.685 750.363 320.636 749.169 320.118 748.071C322.524 750.402 327.357 755.222 330.121 753.381C331.897 760.766 334.523 763 338.106 772.108C338.583 773.319 339.466 775.952 339.744 777.224C339.965 778.24 338.811 779.996 338.708 781.03C338.409 784.057 337.685 787.041 336.564 789.868C336.349 790.408 336.117 790.993 336.27 791.553C336.474 792.298 337.268 792.701 338 792.948C339.499 793.453 341.155 793.683 342.654 793.182C344.632 792.52 346.007 790.705 346.889 788.815C347.771 786.925 348.289 784.875 349.259 783.03C350.085 781.459 351.233 780.047 351.825 778.374C352.417 776.701 351.426 774.896 350.032 773.797Z" fill="#EFECF2"/>
<path opacity="0.6" d="M460 21.4993L245.872 142.745L233 147L432.603 -31L460 21.4993Z" fill="url(#paint0_linear_1730_10297)" fill-opacity="0.1"/>
<path opacity="0.6" d="M438 20.0068L315 52L409.493 -17L438 20.0068Z" fill="url(#paint1_linear_1730_10297)" fill-opacity="0.1"/>
</g>
<defs>
<linearGradient id="paint0_linear_1730_10297" x1="417.674" y1="65.9691" x2="257.416" y2="32.0458" gradientUnits="userSpaceOnUse">
<stop stop-color="#6EC42D"/>
<stop offset="0.1639" stop-color="#04764E"/>
<stop offset="0.4565" stop-color="#FCB621"/>
<stop offset="0.8413" stop-color="#04764E"/>
<stop offset="1" stop-color="#6EC42D"/>
</linearGradient>
<linearGradient id="paint1_linear_1730_10297" x1="415.065" y1="20.5891" x2="331.642" y2="-4.09477" gradientUnits="userSpaceOnUse">
<stop stop-color="#6EC42D"/>
<stop offset="0.1639" stop-color="#04764E"/>
<stop offset="0.4565" stop-color="#FCB621"/>
<stop offset="0.8413" stop-color="#04764E"/>
<stop offset="1" stop-color="#6EC42D"/>
</linearGradient>
<clipPath id="clip0_1730_10297">
<rect width="375" height="812" fill="white"/>
</clipPath>
</defs>
</svg>
