<svg width="20" height="20" viewBox="0 0 20 20" fill="none" xmlns="http://www.w3.org/2000/svg">
<path d="M10.0002 0.833374C4.94933 0.833374 0.833496 4.94921 0.833496 10C0.833496 15.0509 4.94933 19.1667 10.0002 19.1667C15.051 19.1667 19.1668 15.0509 19.1668 10C19.1668 4.94921 15.051 0.833374 10.0002 0.833374ZM13.6668 10.6875H10.6877V13.6667C10.6877 14.0425 10.376 14.3542 10.0002 14.3542C9.62433 14.3542 9.31266 14.0425 9.31266 13.6667V10.6875H6.3335C5.95766 10.6875 5.646 10.3759 5.646 10C5.646 9.62421 5.95766 9.31254 6.3335 9.31254H9.31266V6.33337C9.31266 5.95754 9.62433 5.64587 10.0002 5.64587C10.376 5.64587 10.6877 5.95754 10.6877 6.33337V9.31254H13.6668C14.0427 9.31254 14.3543 9.62421 14.3543 10C14.3543 10.3759 14.0427 10.6875 13.6668 10.6875Z" fill="#A7D129"/>
</svg>
