<svg width="48" height="48" viewBox="0 0 48 48" fill="none" xmlns="http://www.w3.org/2000/svg">
<mask id="mask0_230_2545" style="mask-type:luminance" maskUnits="userSpaceOnUse" x="0" y="0" width="48" height="48">
<path d="M0 0H48V48H0V0Z" fill="white"/>
</mask>
<g mask="url(#mask0_230_2545)">
<mask id="mask1_230_2545" style="mask-type:luminance" maskUnits="userSpaceOnUse" x="0" y="0" width="48" height="48">
<path d="M0 0H48V48H0V0Z" fill="white"/>
</mask>
<g mask="url(#mask1_230_2545)">
<path d="M38.9611 30.4578C38.7713 29.7739 38.9243 29.0069 39.4201 28.1568C39.4705 28.0725 39.5199 27.9947 39.5683 27.9232C39.6167 27.8517 39.6671 27.7816 39.7195 27.7128L40.9127 28.6218L39.6683 27.7844C40.4271 26.6568 41.0052 25.4431 41.4025 24.1433C41.7997 22.8435 41.9989 21.514 42.0001 20.1549C42.0064 18.241 41.627 16.4112 40.8619 14.6654C40.121 12.9744 39.0707 11.4752 37.7109 10.168C36.3468 8.8565 34.7781 7.84068 33.0047 7.12056C31.165 6.37352 29.2353 6 27.2158 6C25.4539 6 23.754 6.28758 22.1161 6.86274C20.5363 7.4175 19.0943 8.21041 17.7903 9.24148C16.5001 10.2616 15.4211 11.4542 14.5532 12.8194C13.6714 14.2065 13.0591 15.6922 12.7163 17.2766C12.6123 17.7527 12.5342 18.232 12.482 18.7145C12.4298 19.1971 12.4036 19.681 12.4033 20.1664C12.4033 22.095 12.7762 23.9428 13.5219 25.71C14.2471 27.4285 15.2724 28.9507 16.5978 30.2766C17.9321 31.6115 19.4684 32.6447 21.2066 33.376C23.0174 34.1379 24.9267 34.5188 26.9346 34.5188C27.4875 34.5188 28.1826 34.4428 29.0199 34.2908C29.683 34.1705 30.3305 34.0237 30.9627 33.8504C31.7115 33.6449 32.4603 33.4002 33.2089 33.1162C33.4344 33.0313 33.6647 32.9673 33.8999 32.9242C34.135 32.8813 34.3721 32.8597 34.6111 32.8594C34.8709 32.8583 35.1295 32.8833 35.3869 32.9344C35.6444 32.9853 35.8943 33.0613 36.1365 33.1622L35.5595 34.5468L36.0607 33.133L41.4187 35.0324L41.4599 35.05C41.4493 35.0455 41.4383 35.0417 41.4271 35.0388C41.4158 35.0359 41.4044 35.0339 41.3929 35.0328L41.2407 36.525V35.025C41.0337 35.025 40.8569 35.0982 40.7105 35.2446C40.564 35.3911 40.4907 35.5679 40.4907 35.775H41.9907L40.4951 35.889C40.4959 35.8995 40.4973 35.9099 40.4993 35.9202C40.5012 35.9306 40.5037 35.9409 40.5067 35.951L38.9625 30.4624L38.9611 30.4578ZM41.8503 29.65L43.3813 35.0928C43.4089 35.1853 43.4315 35.2791 43.4491 35.374C43.4667 35.4691 43.4792 35.5647 43.4865 35.661L43.4907 35.718V35.775C43.4907 36.3963 43.2711 36.9267 42.8317 37.366C42.3924 37.8053 41.8621 38.025 41.2407 38.025H41.1645L41.0887 38.0172C40.9513 38.0032 40.8157 37.9791 40.6819 37.9448C40.5482 37.9105 40.4177 37.8665 40.2905 37.8126L40.8751 36.4312L40.3739 37.845L35.0201 35.947L34.9825 35.9314C34.9249 35.9074 34.8655 35.8893 34.8041 35.8772C34.7428 35.8651 34.6795 35.8591 34.6143 35.8594C34.5555 35.8594 34.4972 35.8647 34.4393 35.8754C34.3815 35.8859 34.3259 35.9012 34.2727 35.9212C33.4354 36.2388 32.5966 36.5129 31.7563 36.7434C29.8723 37.2603 28.265 37.5188 26.9346 37.5188C24.5231 37.5188 22.226 37.0596 20.0432 36.1412C17.9434 35.2577 16.0876 34.0099 14.476 32.3976C12.8744 30.7953 11.6351 28.9549 10.758 26.8764C9.85486 24.7363 9.40332 22.4991 9.40332 20.1648C9.40363 19.5721 9.43567 18.9811 9.49942 18.3918C9.56317 17.8026 9.65807 17.2194 9.78412 16.6422C10.2024 14.709 10.9482 12.8982 12.0215 11.2099C13.0711 9.55894 14.3738 8.11837 15.9296 6.8882C17.496 5.64974 19.2268 4.69773 21.1221 4.03218C23.0817 3.34406 25.113 3 27.2158 3C29.6259 3 31.9318 3.44699 34.1333 4.34097C36.2632 5.20581 38.1488 6.42729 39.7901 8.00542C41.4361 9.58786 42.7093 11.4065 43.6097 13.4613C44.5443 15.5939 45.0077 17.826 45.0001 20.1576C44.9987 21.8147 44.7557 23.4355 44.2713 25.0202C43.7871 26.6049 43.0823 28.0846 42.1571 29.4594L42.1325 29.4958L42.1059 29.531C42.0873 29.5554 42.0693 29.5803 42.0521 29.6058C42.0348 29.6313 42.0213 29.6521 42.0115 29.6682C41.9475 29.7779 41.904 29.8689 41.8809 29.9412C41.8784 29.9489 41.8763 29.9572 41.8763 29.9572C41.8781 29.9492 41.8795 29.9385 41.8807 29.9252C41.8886 29.8429 41.8789 29.7528 41.8517 29.6548L41.8503 29.65Z" fill="#D55151"/>
<path fill-rule="evenodd" clip-rule="evenodd" d="M6.96015 20.4394C6.23631 20.0365 5.32288 20.2966 4.91996 21.0205C3.52923 23.519 2.89365 26.1967 3.01322 29.0536C3.1328 31.9106 3.98992 34.5258 5.58457 36.8993L4.53912 42.33C4.46063 42.7278 4.48966 43.1201 4.6262 43.507C4.76273 43.894 4.98825 44.2192 5.30273 44.4828L5.33146 44.5062C5.53464 44.6681 5.75903 44.7914 6.00463 44.8762C6.25017 44.9609 6.50283 45.0022 6.76261 45C6.90176 45.0004 7.04496 44.9854 7.19221 44.955C7.32804 44.927 7.4599 44.8865 7.58779 44.8334L12.8318 42.781L12.8729 42.7976C14.9728 43.6159 17.0553 44.025 19.1203 44.025C20.5694 44.0266 21.9943 43.8394 23.395 43.4632C24.7956 43.0872 26.1231 42.5354 27.3775 41.8078C28.0941 41.3922 28.3381 40.4743 27.9225 39.7577C27.5069 39.0411 26.5889 38.7972 25.8723 39.2128C24.847 39.8075 23.7619 40.2586 22.6171 40.5659C21.4723 40.8732 20.3067 41.0263 19.1203 41.025C17.438 41.025 15.7257 40.6869 13.9833 40.0106C13.6314 39.8627 13.2643 39.7855 12.8819 39.7791C12.4883 39.7726 12.1096 39.841 11.7458 39.9844L7.74379 41.5508L8.60107 37.1092C8.67963 36.7258 8.63182 36.3275 8.45763 35.9143C8.37287 35.7132 8.24525 35.4839 8.07475 35.2263C6.79464 33.321 6.10659 31.2216 6.0106 28.9282C5.91461 26.6348 6.42482 24.4852 7.54123 22.4796C7.94415 21.7557 7.68397 20.8423 6.96015 20.4394Z" fill="#D55151"/>
</g>
</g>
</svg>
