<svg width="35" height="49" viewBox="0 0 35 49" fill="none" xmlns="http://www.w3.org/2000/svg">
<g clip-path="url(#clip0_741_36999)">
<path fill-rule="evenodd" clip-rule="evenodd" d="M29.9389 30.5808L35 42.4052L28.6549 42.3314L23.4404 46.5587L18.8664 35.4204C20.1888 35.0994 21.4977 34.4316 22.819 33.3958L22.9782 33.2789L22.9753 33.2751L23.0616 33.208L23.0578 33.2023C23.2256 33.0681 23.3982 32.9311 23.5516 32.8142C23.871 32.8344 24.2162 32.8468 24.6467 32.8267C25.2403 32.7999 25.877 32.706 26.5808 32.4799C27.2003 32.2806 27.7747 32.0362 28.3021 31.745C28.8465 31.4456 29.3582 31.0901 29.8286 30.6843L29.8248 30.6795L29.9389 30.5808ZM16.9669 0.00193822C17.6007 -0.0153082 18.1674 0.0833797 18.6938 0.264467C19.179 0.431183 19.624 0.669759 20.0622 0.947618C20.5071 1.22356 20.9262 1.57903 21.374 1.96228C21.8026 2.32829 22.2753 2.73071 22.75 3.00186L22.7807 3.02006C22.9763 3.0948 23.4759 3.11492 23.9985 3.13312C25.8195 3.20019 27.7842 3.27301 29.259 5.46044L29.3396 5.58978C30.3953 7.21095 30.474 8.42491 30.5497 9.61299L30.5536 9.69635C30.5775 10.0624 30.6197 10.4063 30.7348 10.7465C30.8614 11.1058 31.0838 11.5197 31.477 12.04C32.5423 13.4465 33.2001 14.6796 33.4705 15.8763C33.7908 17.2963 33.5808 18.561 32.8664 19.8334C32.3573 20.7379 31.6774 21.3204 31.0781 21.8331C30.8614 22.018 30.754 21.9816 30.7108 22.0831L30.6667 22.1799C30.5641 22.4836 30.5574 22.8573 30.5526 23.2377C30.5382 24.215 30.521 25.2277 29.8344 26.5816C29.4038 27.4286 28.841 28.1443 28.1534 28.7288C27.4784 29.3094 26.6892 29.7415 25.7936 30.0299C24.8759 30.325 24.1404 30.2733 23.4452 30.2234C23.1796 30.2052 22.9907 30.1593 22.959 30.1727C22.4604 30.3882 21.9311 30.8137 21.4334 31.2113L21.3184 31.2975C18.2125 33.7753 15.4623 33.5836 12.5003 31.2113C12.0036 30.8137 11.4733 30.3892 10.9737 30.1803C10.9238 30.1583 10.5662 30.2177 10.4885 30.2234C9.79233 30.2733 9.05685 30.325 8.14014 30.0299C7.24356 29.7415 6.45534 29.3094 5.78027 28.7364C5.09658 28.1558 4.53466 27.4372 4.09932 26.5816C3.41082 25.2268 3.39548 24.214 3.3811 23.2367C3.37534 22.8142 3.36767 22.4012 3.23055 22.0831C3.1826 21.971 3.08 22.0247 2.85562 21.8331C2.25726 21.3214 1.57548 20.7398 1.0663 19.8334C0.351918 18.561 0.142877 17.2963 0.463151 15.8763C0.732603 14.6787 1.39041 13.4465 2.45575 12.04C2.8489 11.5197 3.07233 11.1058 3.19603 10.7455L3.22 10.6784C3.31877 10.3613 3.35712 10.0384 3.37822 9.69635L3.38685 9.56604C3.46452 8.36071 3.55658 7.12759 4.6737 5.4681C6.14753 3.27397 8.11329 3.20019 9.93521 3.13312C10.4904 3.113 11.0197 3.09192 11.1856 3.00569C11.6593 2.73071 12.1311 2.32829 12.5616 1.96037L12.6786 1.86743C13.0823 1.52537 13.463 1.20536 13.8648 0.95145C14.2925 0.674549 14.7384 0.435974 15.2389 0.264467C15.7653 0.0833797 16.3292 -0.0153082 16.9669 0.00193822ZM16.9678 1.68442C17.7656 1.64993 18.3947 1.92779 19.0295 2.33117C19.8349 2.84185 20.7421 3.84981 21.8611 4.48984C23.4366 5.38858 26.3536 4.14779 27.8475 6.36587C28.7192 7.6584 28.7595 8.67306 28.8247 9.67431C28.8947 10.7551 29.0845 11.7487 30.1911 13.2118C32.0236 15.633 32.4052 17.2445 31.4616 18.9242C30.8173 20.0691 29.4623 20.7053 29.1488 21.4306C28.4814 22.9732 29.2197 24.1364 28.3059 25.9348C27.6721 27.1833 26.693 28.0054 25.3889 28.425C24.29 28.7786 23.1873 28.2669 22.307 28.6368C20.7603 29.2854 19.6192 30.7955 18.3889 31.1768C17.9142 31.3234 17.4405 31.3962 16.9678 31.3933C16.4951 31.3962 16.0214 31.3234 15.5467 31.1768C14.3155 30.7955 13.1753 29.2854 11.6286 28.6368C10.7484 28.2669 9.64562 28.7786 8.54575 28.425C7.2426 28.0054 6.26356 27.1833 5.62973 25.9348C4.71589 24.1364 5.45425 22.9732 4.78685 21.4306C4.47329 20.7053 3.1174 20.0691 2.47397 18.9242C1.52945 17.2445 1.91205 15.633 3.74356 13.2118C4.85014 11.7487 5.04 10.7551 5.11 9.67431C5.17521 8.67306 5.21644 7.6584 6.08712 6.36587C7.5811 4.14779 10.499 5.38858 12.0736 4.48984C13.1936 3.84981 14.0997 2.84185 14.9062 2.33117C15.541 1.92779 16.17 1.64993 16.9678 1.68442ZM17.1519 12.2517L18.3505 15.0562L21.3912 15.3283C21.4231 15.3309 21.4542 15.3399 21.4826 15.3546C21.5111 15.3693 21.5363 15.3894 21.5569 15.4139C21.5775 15.4384 21.593 15.4667 21.6026 15.4973C21.6122 15.5278 21.6156 15.5599 21.6127 15.5918C21.6073 15.6547 21.5778 15.713 21.5303 15.7546L19.2308 17.761L19.9107 20.736C19.9216 20.7834 19.9181 20.8329 19.9007 20.8783C19.8832 20.9237 19.8525 20.9628 19.8126 20.9906C19.7727 21.0184 19.7254 21.0337 19.6767 21.0344C19.6281 21.0351 19.5803 21.0213 19.5396 20.9947L16.9266 19.4339L14.3059 20.9995C14.1899 21.0685 14.0403 21.0311 13.9712 20.9152C13.9388 20.8614 13.9285 20.7972 13.9425 20.736L14.6233 17.761L12.3229 15.7546C12.2987 15.7336 12.2789 15.708 12.2647 15.6793C12.2504 15.6506 12.242 15.6194 12.2398 15.5874C12.2377 15.5555 12.2419 15.5234 12.2522 15.4931C12.2625 15.4627 12.2787 15.4347 12.2999 15.4107C12.3449 15.3589 12.4073 15.3311 12.4705 15.3273L15.5026 15.0562L16.7022 12.2498C16.7549 12.1252 16.8978 12.0677 17.0225 12.1204C17.0838 12.1463 17.1279 12.1952 17.1519 12.2517ZM16.9266 7.1755C22.2044 7.1755 26.484 11.4517 26.484 16.7252C26.484 21.9998 22.2044 26.275 16.9266 26.275C11.6478 26.275 7.36918 21.9998 7.36918 16.7252C7.36918 11.4517 11.6478 7.1755 16.9266 7.1755ZM16.9266 8.78804C21.3136 8.78804 24.8701 12.3418 24.8701 16.7252C24.8701 21.1097 21.3136 24.6624 16.9266 24.6624C12.5386 24.6624 8.98301 21.1097 8.98301 16.7252C8.98301 12.3418 12.5386 8.78804 16.9266 8.78804ZM16.8949 35.6455L11.5596 49L6.34507 44.7737L0 44.8465L5.53479 31.6923L5.63548 31.7488C6.16288 32.0372 6.73726 32.2825 7.35288 32.4799C8.05575 32.706 8.69247 32.7999 9.28603 32.8267C9.71178 32.8468 10.0551 32.8344 10.3725 32.8152C10.5288 32.9331 10.709 33.0768 10.8816 33.2157L10.8855 33.2186C12.811 34.7593 14.7441 35.5947 16.7952 35.6446L16.8949 35.6455Z" fill="#901ED0"/>
</g>
<defs>
<clipPath id="clip0_741_36999">
<rect width="35" height="49" fill="white"/>
</clipPath>
</defs>
</svg>
