<svg width="20" height="21" viewBox="0 0 20 21" fill="none" xmlns="http://www.w3.org/2000/svg">
<path fill-rule="evenodd" clip-rule="evenodd" d="M4.40146 9.74121H15.6575V6.38135H12.0715C11.695 6.38135 11.1711 6.1814 10.923 5.93701C10.6749 5.69263 10.5239 5.25171 10.5239 4.88257V1.30566H1.41221C1.38099 1.30566 1.3567 1.32104 1.34108 1.33643C1.31506 1.35352 1.30812 1.37573 1.30812 1.4082V19.6003C1.30812 19.6243 1.32373 19.655 1.33935 19.6704C1.35496 19.6943 1.38793 19.7012 1.41048 19.7012C5.3626 19.7012 11.4885 19.7012 15.5517 19.7012C15.5829 19.7012 15.5812 19.6858 15.5985 19.6704C15.6228 19.655 15.6558 19.6226 15.6558 19.6003V17.6931H4.40146C3.68321 17.6931 3.08987 17.1121 3.08987 16.4011V11.0315C3.08987 10.3223 3.67974 9.74121 4.40146 9.74121ZM5.11624 11.5186H7.40458C7.9025 11.5186 8.2755 11.6348 8.52533 11.8689C8.77342 12.103 8.8966 12.4346 8.8966 12.8669C8.8966 13.3096 8.76128 13.6565 8.49063 13.906C8.21999 14.1555 7.80708 14.2803 7.25191 14.2803H6.49722V15.9021H5.11624V11.5186ZM6.49549 13.3933H6.8338C7.10097 13.3933 7.28834 13.3472 7.39591 13.2566C7.50347 13.166 7.55725 13.0498 7.55725 12.908C7.55725 12.7695 7.51041 12.6533 7.41672 12.5576C7.32304 12.4619 7.14781 12.4141 6.88758 12.4141H6.49375V13.3933H6.49549ZM9.53852 11.5186H11.5822C11.9847 11.5186 12.3109 11.5732 12.559 11.6792C12.8071 11.7869 13.0118 11.9407 13.1749 12.1423C13.3362 12.344 13.4542 12.5781 13.5253 12.8447C13.5982 13.1113 13.6346 13.395 13.6346 13.6941C13.6346 14.1624 13.5808 14.5264 13.4715 14.7844C13.364 15.0425 13.213 15.2595 13.0205 15.4338C12.8279 15.6082 12.6214 15.7244 12.4011 15.7825C12.0992 15.8628 11.8269 15.9021 11.5822 15.9021H9.53852V11.5186ZM10.9108 12.5115V14.9058H11.2491C11.5371 14.9058 11.7418 14.8733 11.865 14.8118C11.9865 14.7485 12.0819 14.6392 12.1513 14.4836C12.2207 14.3264 12.2554 14.0735 12.2554 13.7231C12.2554 13.2583 12.179 12.9421 12.0246 12.7695C11.8702 12.5986 11.6152 12.5132 11.2578 12.5132H10.9108V12.5115ZM14.2679 11.5186H17.6683V12.4619H15.6489V13.2275H17.3768V14.1162H15.6489V15.9038H14.2696V11.5186H14.2679ZM16.9639 9.74121H18.6867C19.4084 9.74121 19.9983 10.324 19.9983 11.0332V16.4028C19.9983 17.1121 19.4067 17.6948 18.6867 17.6948H16.9639V20.0105C16.9639 20.2856 16.8511 20.53 16.669 20.7112C16.4851 20.8923 16.237 21.0017 15.9577 21.0017C10.8501 21.0017 6.13983 21.0017 1.00625 21.0017C0.726926 21.0017 0.478834 20.8923 0.294934 20.7112C0.111034 20.53 0 20.2856 0 20.0105V0.999756C0 0.724609 0.112769 0.480225 0.294934 0.299072C0.478834 0.11792 0.733865 0.00854492 1.00625 0.00854492H11.1936C11.2162 0 11.2405 0 11.2647 0C11.3758 0 11.4885 0.0478516 11.5684 0.11792H11.584C11.5996 0.126465 11.6083 0.133301 11.6239 0.148682L16.8269 5.33716C16.9153 5.42432 16.9795 5.54224 16.9795 5.67554C16.9795 5.71484 16.9709 5.74561 16.9639 5.78662V9.74121ZM11.7124 4.78003V1.52783L15.4303 5.23633H12.1756C12.0472 5.23633 11.9362 5.18164 11.8477 5.10303C11.7679 5.02441 11.7124 4.90649 11.7124 4.78003Z" fill="#A7D129"/>
</svg>
