<svg width="23" height="17" viewBox="0 0 23 17" fill="none" xmlns="http://www.w3.org/2000/svg">
<g clip-path="url(#clip0_404_9631)">
<path fill-rule="evenodd" clip-rule="evenodd" d="M4.45288 9.86092C5.09676 11.8468 7.78833 11.9214 8.39478 9.86092C9.10791 10.534 10.7588 10.6674 11.5449 11.1247C12.3311 11.5819 12.6174 12.3139 12.6829 13.2048L12.7372 13.6738C12.584 13.798 12.4205 13.9077 12.2487 14.0015C11.6287 14.3204 10.9307 14.4333 10.2478 14.3253C9.94622 14.2876 9.64186 14.3664 9.39172 14.547C9.14158 14.7276 8.96282 14.9976 8.88892 15.3065H0.748698C0.273275 15.2672 0.0336914 15.0102 0 14.5667L0.162842 13.193C0.182267 12.6542 0.351415 12.1331 0.649495 11.6938C0.826063 11.4523 1.0485 11.2518 1.30273 11.1051C2.23861 10.5615 3.67424 10.5752 4.45288 9.84129V9.86092ZM3.89136 6.2168C3.81071 6.22251 3.73248 6.24806 3.663 6.29137C3.62967 6.31617 3.60267 6.34919 3.58439 6.38752C3.565 6.43723 3.55668 6.49092 3.56006 6.54451C3.5944 6.80569 3.69383 7.05275 3.84831 7.26078L4.4585 8.27532C4.68245 8.69291 4.95812 9.0776 5.27832 9.41938C5.5861 9.73247 5.99873 9.9065 6.42757 9.90409C6.65215 9.90856 6.87531 9.86589 7.08392 9.77861C7.29254 9.69132 7.4824 9.56118 7.64233 9.39583C7.97114 9.03748 8.25312 8.63495 8.48088 8.19879L9.16593 7.02137C9.30632 6.68973 9.35311 6.48564 9.30257 6.38752C9.27637 6.33258 9.18278 6.31099 9.0293 6.3208C8.90562 6.35176 8.77626 6.34701 8.65495 6.30707L8.93197 5.48876C7.67415 5.45736 6.81689 5.22776 5.80241 4.54682C5.46737 4.32507 5.36816 4.068 5.03499 4.09351C4.79293 4.13765 4.57134 4.2638 4.40422 4.45263C4.2252 4.66667 4.10034 4.92443 4.0411 5.20225L4.24325 6.22465C4.12973 6.25573 4.01049 6.25573 3.89697 6.22465L3.89136 6.2168ZM9.35872 5.92244C9.42585 5.9407 9.48839 5.97402 9.54204 6.0201C9.59568 6.06618 9.63915 6.12392 9.66943 6.18932C9.77238 6.40518 9.7312 6.72701 9.53841 7.18817L9.52531 7.21172L8.83089 8.41073C8.58532 8.88097 8.27993 9.31404 7.9231 9.69804C7.72619 9.90191 7.4921 10.0621 7.23483 10.169C6.97755 10.2758 6.70236 10.3272 6.4257 10.3201C5.89773 10.3249 5.38877 10.1137 5.00692 9.7314C4.66068 9.36945 4.36172 8.96099 4.11784 8.51669L3.50952 7.50019C3.31242 7.22595 3.1913 6.90001 3.15951 6.55825C3.15484 6.43887 3.17662 6.31998 3.22314 6.21091C3.27097 6.10168 3.34761 6.00908 3.44401 5.94403C3.49422 5.90866 3.54825 5.87968 3.60498 5.85768C3.56517 5.36037 3.55642 4.86087 3.57878 4.36236C3.59285 4.22177 3.61789 4.08263 3.65365 3.94634C3.82423 3.37143 4.19067 2.88246 4.68311 2.57268C4.85958 2.45671 5.04794 2.36192 5.24463 2.2901C6.41447 1.8466 7.96615 2.09386 8.80094 3.03187C9.16982 3.46531 9.38122 4.02115 9.39803 4.60177L9.35872 5.92244Z" fill="#0047AB"/>
<path fill-rule="evenodd" clip-rule="evenodd" d="M14.5997 7.78665C15.2436 9.77256 17.9351 9.84713 18.5416 7.78665C19.2547 8.45974 20.9056 8.59514 21.6917 9.05237C22.4779 9.50961 22.7642 10.2298 22.8298 11.1325L22.9926 12.8711C22.9926 12.9065 21.6038 12.9222 19.9192 12.9261V11.6604C19.9182 11.316 19.7874 10.9859 19.5553 10.7422C19.3232 10.4985 19.0086 10.3609 18.6801 10.3593L13.8753 10.3338C13.6804 10.3344 13.4883 10.3821 13.3138 10.4731C13.1118 10.175 12.8474 9.92927 12.5408 9.7549C12.1057 9.5311 11.648 9.35929 11.1763 9.24272C11.2655 9.1707 11.3593 9.10513 11.457 9.04649C12.3929 8.50095 13.8285 8.51665 14.6072 7.78076L14.5997 7.78665ZM14.0382 4.14449C13.9579 4.14887 13.88 4.17453 13.8117 4.21906C13.777 4.24194 13.7491 4.27458 13.7312 4.31325C13.7118 4.36296 13.7035 4.41665 13.7069 4.47024C13.7382 4.73395 13.8365 4.98401 13.9914 5.19436L14.6016 6.2089C14.8249 6.61933 15.0994 6.9968 15.4176 7.33138C15.7248 7.64572 16.1377 7.82056 16.5669 7.81805C16.7915 7.82251 17.0146 7.77985 17.2232 7.69257C17.4319 7.60528 17.6217 7.47514 17.7817 7.30979C18.1109 6.9511 18.3929 6.54786 18.6202 6.11078L19.3053 4.93336C19.4456 4.59976 19.4924 4.39567 19.4419 4.29952C19.4157 4.24261 19.3221 4.22298 19.1686 4.23083C19.0452 4.26354 18.9156 4.25947 18.7943 4.21906L19.0919 3.40075C17.8359 3.38505 16.9787 3.15546 15.9623 2.47451C15.6273 2.2508 15.5281 1.9957 15.1949 2.02121C14.9531 2.06481 14.7315 2.19026 14.5641 2.37836C14.3851 2.5924 14.2603 2.85017 14.201 3.12798L14.4032 4.15038C14.2897 4.18237 14.1703 4.18237 14.0569 4.15038L14.0382 4.14449ZM19.4924 3.85014C19.5618 3.86753 19.6267 3.90083 19.6824 3.94766C19.7381 3.99449 19.7831 4.05367 19.8144 4.12094C19.9173 4.33876 19.8761 4.66059 19.6834 5.11979C19.6834 5.11979 19.6833 5.13549 19.6702 5.1453L18.9758 6.34431C18.7298 6.81424 18.4244 7.24724 18.068 7.63162C17.8705 7.8345 17.6363 7.99389 17.3791 8.10039C17.122 8.20688 16.8471 8.25834 16.5706 8.25173C16.0446 8.25112 15.5394 8.03655 15.1612 7.65321C14.8166 7.29409 14.5195 6.8882 14.2778 6.44635L13.6638 5.42788C13.4669 5.15279 13.3458 4.82628 13.3138 4.48398C13.3089 4.36522 13.3307 4.24692 13.3774 4.1386C13.4252 4.02877 13.5018 3.9355 13.5983 3.86976C13.6482 3.83429 13.7023 3.80592 13.7593 3.78538C13.7195 3.28741 13.7107 2.78725 13.7331 2.28809C13.7471 2.14815 13.7722 2.00966 13.8079 1.87403C13.9779 1.29877 14.3445 0.809588 14.8374 0.500371C15.0135 0.383619 15.2019 0.288786 15.3989 0.21779C16.5688 -0.227667 18.1204 0.0215534 18.9552 0.957603C19.3238 1.39122 19.5352 1.94695 19.5523 2.5275L19.513 3.85602L19.4924 3.85014Z" fill="#0047AB"/>
<path fill-rule="evenodd" clip-rule="evenodd" d="M18.6746 11.6663L13.8717 11.6407L15.0733 12.9006C13.8754 14.8139 12.3368 15.7029 10.2798 15.4517C12.801 17.7633 15.5581 17.2669 17.4729 15.4183L18.6989 16.7037L18.6746 11.6682V11.6663Z" fill="#A7D129"/>
</g>
<defs>
<clipPath id="clip0_404_9631">
<rect width="23" height="17" fill="white"/>
</clipPath>
</defs>
</svg>
