<svg width="48" height="48" viewBox="0 0 48 48" fill="none" xmlns="http://www.w3.org/2000/svg">
<mask id="mask0_230_2561" style="mask-type:luminance" maskUnits="userSpaceOnUse" x="0" y="0" width="48" height="48">
<path d="M0 0H48V48H0V0Z" fill="white"/>
</mask>
<g mask="url(#mask0_230_2561)">
<mask id="mask1_230_2561" style="mask-type:luminance" maskUnits="userSpaceOnUse" x="0" y="0" width="48" height="48">
<path d="M0 0H48V48H0V0Z" fill="white"/>
</mask>
<g mask="url(#mask1_230_2561)">
<path fill-rule="evenodd" clip-rule="evenodd" d="M13.5 15V13.5C13.5 10.6005 14.5251 8.12563 16.5754 6.07538C18.6256 4.02513 21.1005 3 24 3C26.8995 3 29.3743 4.02513 31.4246 6.07538C33.4749 8.12563 34.5 10.6005 34.5 13.5V15H40.5C41.3284 15 42.0355 15.2929 42.6214 15.8787C43.2071 16.4645 43.5 17.1716 43.5 18V38.3672C43.5 39.2721 43.317 40.1398 42.951 40.9702C42.6022 41.7614 42.1126 42.4626 41.4822 43.0738C40.8578 43.6791 40.1443 44.1485 39.3418 44.4818C38.5105 44.8273 37.6465 45 36.75 45H11.25C10.3476 45 9.4768 44.8183 8.63756 44.4548C7.83756 44.1084 7.12545 43.6231 6.50121 42.9988C5.87698 42.3745 5.39163 41.6624 5.04518 40.8624C4.68173 40.0232 4.5 39.1524 4.5 38.25V18C4.5 17.1716 4.79289 16.4645 5.37868 15.8787C5.96447 15.2929 6.67157 15 7.5 15H13.5ZM15 18H7.5V38.25C7.5 39.2533 7.87418 40.1291 8.62254 40.8774C9.37089 41.6258 10.2467 42 11.25 42H36.75C37.7699 42 38.6512 41.6399 39.394 40.9198C40.1313 40.205 40.5 39.3541 40.5 38.3672V18H15ZM31.5 15H16.5V13.5C16.5 11.4289 17.2322 9.66117 18.6967 8.1967C20.1612 6.73223 21.9289 6 24 6C26.0711 6 27.8388 6.73223 29.3032 8.1967C30.7677 9.66117 31.5 11.4289 31.5 13.5V15Z" fill="#9333EA"/>
</g>
</g>
</svg>
