<svg width="28" height="28" viewBox="0 0 28 28" fill="none" xmlns="http://www.w3.org/2000/svg">
<circle cx="14" cy="14" r="14" fill="#A7D129"/>
<path d="M15.9192 13.2468C15.8526 13.2402 15.7726 13.2402 15.6992 13.2468C14.1126 13.1935 12.8526 11.8935 12.8526 10.2935C12.8459 8.66016 14.1726 7.3335 15.8059 7.3335C17.4392 7.3335 18.7659 8.66016 18.7659 10.2935C18.7659 11.8935 17.4992 13.1935 15.9192 13.2468Z" stroke="white" stroke-linecap="round" stroke-linejoin="round"/>
<path d="M15.8059 20.5402C14.5925 20.5402 13.3859 20.2335 12.4659 19.6202C10.8525 18.5402 10.8525 16.7802 12.4659 15.7069C14.2992 14.4802 17.3059 14.4802 19.1392 15.7069" stroke="white" stroke-linecap="round" stroke-linejoin="round"/>
<path d="M11.3733 8.6665C10.08 8.6665 9.03996 9.71317 9.03996 10.9998C9.03996 12.2598 10.04 13.2865 11.2866 13.3332C11.34 13.3265 11.4 13.3265 11.46 13.3332" stroke="white" stroke-linecap="round" stroke-linejoin="round"/>
<path d="M10.0869 19.3335C9.60691 19.2335 9.15358 19.0402 8.78025 18.7535C7.74025 17.9735 7.74025 16.6868 8.78025 15.9068C9.14691 15.6268 9.59358 15.4402 10.0669 15.3335" stroke="white" stroke-linecap="round" stroke-linejoin="round"/>
<path d="M16.667 18.6668L17.7781 20.0002L20.0003 17.3335" stroke="white" stroke-linecap="round" stroke-linejoin="round"/>
</svg>
