<svg width="129" height="147" viewBox="0 0 129 147" fill="none" xmlns="http://www.w3.org/2000/svg">
<circle cx="64.5" cy="64.5" r="63.5" fill="white" stroke="#EDEDED" stroke-width="2"/>
<path d="M64.4994 64.5008C69.2491 64.5008 73.0994 60.6504 73.0994 55.9008C73.0994 51.1511 69.2491 47.3008 64.4994 47.3008C59.7498 47.3008 55.8994 51.1511 55.8994 55.9008C55.8994 60.6504 59.7498 64.5008 64.4994 64.5008Z" fill="#B8B8B8"/>
<path d="M64.4991 68.8008C55.8819 68.8008 48.8643 74.58 48.8643 81.7008C48.8643 82.1824 49.2427 82.5608 49.7243 82.5608H79.2739C79.7555 82.5608 80.1339 82.1824 80.1339 81.7008C80.1339 74.58 73.1163 68.8008 64.4991 68.8008Z" fill="#B8B8B8"/>
<path d="M24.42 144.1C23.9067 144.1 23.4467 143.987 23.04 143.76C22.64 143.527 22.3233 143.21 22.09 142.81C21.8567 142.403 21.74 141.943 21.74 141.43L21.74 137.06L22.68 137.06L22.68 141.41C22.68 141.777 22.7567 142.093 22.91 142.36C23.0633 142.627 23.27 142.833 23.53 142.98C23.7967 143.127 24.0933 143.2 24.42 143.2C24.76 143.2 25.0567 143.127 25.31 142.98C25.57 142.833 25.7733 142.627 25.92 142.36C26.0733 142.093 26.15 141.78 26.15 141.42L26.15 137.06L27.1 137.06L27.1 141.44C27.1 141.953 26.9833 142.41 26.75 142.81C26.5167 143.21 26.2 143.527 25.8 143.76C25.4 143.987 24.94 144.1 24.42 144.1ZM30.9862 144.1C30.6262 144.1 30.2995 144.027 30.0062 143.88C29.7195 143.727 29.4895 143.517 29.3162 143.25C29.1428 142.983 29.0462 142.68 29.0262 142.34L29.0262 140.91C29.0462 140.563 29.1428 140.26 29.3162 140C29.4962 139.733 29.7295 139.527 30.0162 139.38C30.3095 139.227 30.6328 139.15 30.9862 139.15C31.4195 139.15 31.8095 139.26 32.1562 139.48C32.5095 139.7 32.7862 139.997 32.9862 140.37C33.1862 140.743 33.2862 141.163 33.2862 141.63C33.2862 142.097 33.1862 142.517 32.9862 142.89C32.7862 143.263 32.5095 143.56 32.1562 143.78C31.8095 143.993 31.4195 144.1 30.9862 144.1ZM28.4862 145.99L28.4862 139.25L29.3862 139.25L29.3862 140.5L29.2162 141.65L29.3862 142.81L29.3862 145.99L28.4862 145.99ZM30.8362 143.25C31.1362 143.25 31.3995 143.18 31.6262 143.04C31.8528 142.9 32.0328 142.71 32.1662 142.47C32.2995 142.223 32.3662 141.94 32.3662 141.62C32.3662 141.307 32.2995 141.027 32.1662 140.78C32.0328 140.533 31.8528 140.343 31.6262 140.21C31.3995 140.07 31.1395 140 30.8462 140C30.5462 140 30.2828 140.07 30.0562 140.21C29.8295 140.343 29.6528 140.533 29.5262 140.78C29.3995 141.027 29.3362 141.31 29.3362 141.63C29.3362 141.943 29.3962 142.223 29.5162 142.47C29.6428 142.71 29.8195 142.9 30.0462 143.04C30.2795 143.18 30.5428 143.25 30.8362 143.25ZM34.3065 144L34.3065 136.86L35.2065 136.86L35.2065 144L34.3065 144ZM38.6933 144.1C38.2266 144.1 37.8066 143.99 37.4333 143.77C37.0599 143.55 36.7633 143.253 36.5433 142.88C36.3233 142.5 36.2133 142.077 36.2133 141.61C36.2133 141.15 36.3233 140.737 36.5433 140.37C36.7633 139.997 37.0599 139.7 37.4333 139.48C37.8066 139.26 38.2266 139.15 38.6933 139.15C39.1533 139.15 39.5699 139.26 39.9433 139.48C40.3233 139.693 40.6233 139.987 40.8433 140.36C41.0633 140.733 41.1733 141.15 41.1733 141.61C41.1733 142.077 41.0633 142.5 40.8433 142.88C40.6233 143.253 40.3233 143.55 39.9433 143.77C39.5699 143.99 39.1533 144.1 38.6933 144.1ZM38.6933 143.23C38.9933 143.23 39.2599 143.16 39.4933 143.02C39.7266 142.88 39.9099 142.69 40.0433 142.45C40.1766 142.203 40.2433 141.923 40.2433 141.61C40.2433 141.303 40.1733 141.03 40.0333 140.79C39.8999 140.55 39.7166 140.363 39.4833 140.23C39.2566 140.09 38.9933 140.02 38.6933 140.02C38.3933 140.02 38.1266 140.09 37.8933 140.23C37.6599 140.363 37.4766 140.55 37.3433 140.79C37.2099 141.03 37.1433 141.303 37.1433 141.61C37.1433 141.923 37.2099 142.203 37.3433 142.45C37.4766 142.69 37.6599 142.88 37.8933 143.02C38.1266 143.16 38.3933 143.23 38.6933 143.23ZM44.2073 144.1C43.774 144.1 43.3807 143.993 43.0273 143.78C42.674 143.56 42.394 143.263 42.1873 142.89C41.9873 142.517 41.8873 142.097 41.8873 141.63C41.8873 141.163 41.9873 140.743 42.1873 140.37C42.394 139.997 42.6707 139.7 43.0173 139.48C43.3707 139.26 43.7673 139.15 44.2073 139.15C44.5673 139.15 44.8873 139.227 45.1673 139.38C45.454 139.527 45.684 139.733 45.8573 140C46.0307 140.26 46.1273 140.563 46.1473 140.91L46.1473 142.34C46.1273 142.68 46.0307 142.983 45.8573 143.25C45.6907 143.517 45.464 143.727 45.1773 143.88C44.8973 144.027 44.574 144.1 44.2073 144.1ZM44.3573 143.25C44.804 143.25 45.164 143.1 45.4373 142.8C45.7107 142.493 45.8473 142.103 45.8473 141.63C45.8473 141.303 45.784 141.02 45.6573 140.78C45.5373 140.533 45.364 140.343 45.1373 140.21C44.9107 140.07 44.6473 140 44.3473 140C44.0473 140 43.7807 140.07 43.5473 140.21C43.3207 140.35 43.1407 140.543 43.0073 140.79C42.8807 141.03 42.8173 141.307 42.8173 141.62C42.8173 141.94 42.8807 142.223 43.0073 142.47C43.1407 142.71 43.324 142.9 43.5573 143.04C43.7907 143.18 44.0573 143.25 44.3573 143.25ZM45.7873 144L45.7873 142.72L45.9573 141.56L45.7873 140.41L45.7873 139.25L46.6973 139.25L46.6973 144L45.7873 144ZM50.0177 144.1C49.5777 144.1 49.1843 143.993 48.8377 143.78C48.491 143.56 48.2143 143.263 48.0077 142.89C47.8077 142.517 47.7077 142.097 47.7077 141.63C47.7077 141.163 47.8077 140.743 48.0077 140.37C48.2143 139.997 48.491 139.7 48.8377 139.48C49.1843 139.26 49.5777 139.15 50.0177 139.15C50.371 139.15 50.691 139.227 50.9777 139.38C51.2643 139.527 51.4943 139.733 51.6677 140C51.8477 140.26 51.9477 140.563 51.9677 140.91L51.9677 142.34C51.9477 142.68 51.851 142.983 51.6777 143.25C51.5043 143.517 51.2743 143.727 50.9877 143.88C50.701 144.027 50.3777 144.1 50.0177 144.1ZM50.1677 143.25C50.4677 143.25 50.7277 143.18 50.9477 143.04C51.1743 142.9 51.351 142.71 51.4777 142.47C51.6043 142.223 51.6677 141.943 51.6677 141.63C51.6677 141.303 51.601 141.02 51.4677 140.78C51.341 140.54 51.1643 140.35 50.9377 140.21C50.7177 140.07 50.4577 140 50.1577 140C49.8577 140 49.5943 140.07 49.3677 140.21C49.141 140.35 48.961 140.543 48.8277 140.79C48.701 141.03 48.6377 141.307 48.6377 141.62C48.6377 141.94 48.701 142.223 48.8277 142.47C48.961 142.71 49.141 142.9 49.3677 143.04C49.601 143.18 49.8677 143.25 50.1677 143.25ZM52.5177 144L51.6077 144L51.6077 142.72L51.7777 141.56L51.6077 140.41L51.6077 136.86L52.5177 136.86L52.5177 144ZM56.068 144L56.068 137.06L56.728 137.06L59.668 141.89L59.218 141.89L62.158 137.06L62.818 137.06L62.818 144L61.878 144L61.878 138.71L62.098 138.77L59.778 142.58L59.118 142.58L56.798 138.77L57.008 138.71L57.008 144L56.068 144ZM66.4967 144.1C66.0234 144.1 65.5967 143.993 65.2167 143.78C64.8367 143.56 64.5367 143.263 64.3167 142.89C64.0967 142.517 63.9867 142.093 63.9867 141.62C63.9867 141.153 64.0934 140.733 64.3067 140.36C64.5267 139.987 64.8201 139.693 65.1867 139.48C65.5601 139.26 65.9767 139.15 66.4367 139.15C66.8767 139.15 67.2634 139.25 67.5967 139.45C67.9367 139.65 68.2001 139.927 68.3867 140.28C68.5801 140.633 68.6767 141.033 68.6767 141.48C68.6767 141.547 68.6734 141.62 68.6667 141.7C68.6601 141.773 68.6467 141.86 68.6267 141.96L64.6167 141.96L64.6167 141.21L68.1467 141.21L67.8167 141.5C67.8167 141.18 67.7601 140.91 67.6467 140.69C67.5334 140.463 67.3734 140.29 67.1667 140.17C66.9601 140.043 66.7101 139.98 66.4167 139.98C66.1101 139.98 65.8401 140.047 65.6067 140.18C65.3734 140.313 65.1934 140.5 65.0667 140.74C64.9401 140.98 64.8767 141.263 64.8767 141.59C64.8767 141.923 64.9434 142.217 65.0767 142.47C65.2101 142.717 65.4001 142.91 65.6467 143.05C65.8934 143.183 66.1767 143.25 66.4967 143.25C66.7634 143.25 67.0067 143.203 67.2267 143.11C67.4534 143.017 67.6467 142.877 67.8067 142.69L68.3867 143.28C68.1601 143.547 67.8801 143.75 67.5467 143.89C67.2201 144.03 66.8701 144.1 66.4967 144.1ZM69.658 144L69.658 139.25L70.558 139.25L70.558 144L69.658 144ZM72.868 144L72.868 141.13C72.868 140.777 72.758 140.5 72.538 140.3C72.3247 140.093 72.0547 139.99 71.728 139.99C71.508 139.99 71.3114 140.037 71.138 140.13C70.9647 140.223 70.8247 140.353 70.718 140.52C70.6114 140.687 70.558 140.887 70.558 141.12L70.188 140.94C70.188 140.58 70.2647 140.267 70.418 140C70.578 139.733 70.7947 139.527 71.068 139.38C71.3414 139.227 71.648 139.15 71.988 139.15C72.3214 139.15 72.6214 139.223 72.888 139.37C73.1614 139.517 73.3747 139.723 73.528 139.99C73.688 140.257 73.768 140.573 73.768 140.94L73.768 144L72.868 144ZM76.078 144L76.078 141.13C76.078 140.777 75.968 140.5 75.748 140.3C75.5347 140.093 75.268 139.99 74.948 139.99C74.728 139.99 74.528 140.037 74.348 140.13C74.1747 140.223 74.0347 140.353 73.928 140.52C73.8214 140.687 73.768 140.887 73.768 141.12L73.258 140.94C73.278 140.573 73.3747 140.26 73.548 140C73.728 139.733 73.958 139.527 74.238 139.38C74.518 139.227 74.8247 139.15 75.158 139.15C75.5047 139.15 75.8147 139.223 76.088 139.37C76.3614 139.517 76.578 139.723 76.738 139.99C76.9047 140.257 76.988 140.577 76.988 140.95L76.988 144L76.078 144ZM80.7127 144.1C80.3527 144.1 80.0261 144.027 79.7327 143.88C79.4461 143.727 79.2161 143.517 79.0427 143.25C78.8694 142.983 78.7727 142.68 78.7527 142.34L78.7527 140.91C78.7727 140.563 78.8694 140.26 79.0427 140C79.2227 139.733 79.4561 139.527 79.7427 139.38C80.0361 139.227 80.3594 139.15 80.7127 139.15C81.1461 139.15 81.5361 139.26 81.8827 139.48C82.2361 139.7 82.5127 139.997 82.7127 140.37C82.9127 140.743 83.0127 141.163 83.0127 141.63C83.0127 142.097 82.9127 142.517 82.7127 142.89C82.5127 143.263 82.2361 143.56 81.8827 143.78C81.5361 143.993 81.1461 144.1 80.7127 144.1ZM78.2127 144L78.2127 136.86L79.1127 136.86L79.1127 140.41L78.9427 141.56L79.1127 142.72L79.1127 144L78.2127 144ZM80.5627 143.25C80.8627 143.25 81.1261 143.18 81.3527 143.04C81.5794 142.9 81.7594 142.71 81.8927 142.47C82.0261 142.223 82.0927 141.94 82.0927 141.62C82.0927 141.307 82.0261 141.027 81.8927 140.78C81.7594 140.533 81.5794 140.343 81.3527 140.21C81.1261 140.07 80.8661 140 80.5727 140C80.2727 140 80.0094 140.07 79.7827 140.21C79.5561 140.343 79.3794 140.533 79.2527 140.78C79.1261 141.027 79.0627 141.31 79.0627 141.63C79.0627 141.943 79.1227 142.223 79.2427 142.47C79.3694 142.71 79.5461 142.9 79.7727 143.04C80.0061 143.18 80.2694 143.25 80.5627 143.25ZM86.233 144.1C85.7597 144.1 85.333 143.993 84.953 143.78C84.573 143.56 84.273 143.263 84.053 142.89C83.833 142.517 83.723 142.093 83.723 141.62C83.723 141.153 83.8297 140.733 84.043 140.36C84.263 139.987 84.5564 139.693 84.923 139.48C85.2964 139.26 85.713 139.15 86.173 139.15C86.613 139.15 86.9997 139.25 87.333 139.45C87.673 139.65 87.9364 139.927 88.123 140.28C88.3164 140.633 88.413 141.033 88.413 141.48C88.413 141.547 88.4097 141.62 88.403 141.7C88.3964 141.773 88.383 141.86 88.363 141.96L84.353 141.96L84.353 141.21L87.883 141.21L87.553 141.5C87.553 141.18 87.4964 140.91 87.383 140.69C87.2697 140.463 87.1097 140.29 86.903 140.17C86.6964 140.043 86.4464 139.98 86.153 139.98C85.8464 139.98 85.5764 140.047 85.343 140.18C85.1097 140.313 84.9297 140.5 84.803 140.74C84.6764 140.98 84.613 141.263 84.613 141.59C84.613 141.923 84.6797 142.217 84.813 142.47C84.9464 142.717 85.1364 142.91 85.383 143.05C85.6297 143.183 85.913 143.25 86.233 143.25C86.4997 143.25 86.743 143.203 86.963 143.11C87.1897 143.017 87.383 142.877 87.543 142.69L88.123 143.28C87.8964 143.547 87.6164 143.75 87.283 143.89C86.9564 144.03 86.6064 144.1 86.233 144.1ZM89.3944 144L89.3944 139.25L90.2944 139.25L90.2944 144L89.3944 144ZM90.2944 141.29L89.9544 141.14C89.9544 140.533 90.0944 140.05 90.3744 139.69C90.6544 139.33 91.0577 139.15 91.5844 139.15C91.8244 139.15 92.041 139.193 92.2344 139.28C92.4277 139.36 92.6077 139.497 92.7744 139.69L92.1844 140.3C92.0844 140.193 91.9744 140.117 91.8544 140.07C91.7344 140.023 91.5944 140 91.4344 140C91.101 140 90.8277 140.107 90.6144 140.32C90.401 140.533 90.2944 140.857 90.2944 141.29ZM96.4539 141.3L96.4539 140.48L98.3439 140.48C98.6039 140.48 98.8339 140.427 99.0339 140.32C99.2406 140.213 99.4006 140.063 99.5139 139.87C99.6339 139.677 99.6939 139.447 99.6939 139.18C99.6939 138.913 99.6339 138.683 99.5139 138.49C99.4006 138.297 99.2406 138.147 99.0339 138.04C98.8339 137.933 98.6039 137.88 98.3439 137.88L96.4539 137.88L96.4539 137.06L98.4039 137.06C98.8306 137.06 99.2106 137.147 99.5439 137.32C99.8839 137.493 100.151 137.74 100.344 138.06C100.544 138.373 100.644 138.747 100.644 139.18C100.644 139.607 100.544 139.98 100.344 140.3C100.151 140.613 99.8839 140.86 99.5439 141.04C99.2106 141.213 98.8306 141.3 98.4039 141.3L96.4539 141.3ZM95.8239 144L95.8239 137.06L96.7639 137.06L96.7639 144L95.8239 144ZM105.088 144L105.088 141.23C105.088 140.87 104.975 140.573 104.748 140.34C104.522 140.107 104.228 139.99 103.868 139.99C103.628 139.99 103.415 140.043 103.228 140.15C103.042 140.257 102.895 140.403 102.788 140.59C102.682 140.777 102.628 140.99 102.628 141.23L102.258 141.02C102.258 140.66 102.338 140.34 102.498 140.06C102.658 139.78 102.882 139.56 103.168 139.4C103.455 139.233 103.778 139.15 104.138 139.15C104.498 139.15 104.815 139.23 105.088 139.39C105.368 139.55 105.588 139.773 105.748 140.06C105.908 140.347 105.988 140.677 105.988 141.05L105.988 144L105.088 144ZM101.728 144L101.728 136.86L102.628 136.86L102.628 144L101.728 144ZM109.377 144.1C108.91 144.1 108.49 143.99 108.117 143.77C107.744 143.55 107.447 143.253 107.227 142.88C107.007 142.5 106.897 142.077 106.897 141.61C106.897 141.15 107.007 140.737 107.227 140.37C107.447 139.997 107.744 139.7 108.117 139.48C108.49 139.26 108.91 139.15 109.377 139.15C109.837 139.15 110.254 139.26 110.627 139.48C111.007 139.693 111.307 139.987 111.527 140.36C111.747 140.733 111.857 141.15 111.857 141.61C111.857 142.077 111.747 142.5 111.527 142.88C111.307 143.253 111.007 143.55 110.627 143.77C110.254 143.99 109.837 144.1 109.377 144.1ZM109.377 143.23C109.677 143.23 109.944 143.16 110.177 143.02C110.41 142.88 110.594 142.69 110.727 142.45C110.86 142.203 110.927 141.923 110.927 141.61C110.927 141.303 110.857 141.03 110.717 140.79C110.584 140.55 110.4 140.363 110.167 140.23C109.94 140.09 109.677 140.02 109.377 140.02C109.077 140.02 108.81 140.09 108.577 140.23C108.344 140.363 108.16 140.55 108.027 140.79C107.894 141.03 107.827 141.303 107.827 141.61C107.827 141.923 107.894 142.203 108.027 142.45C108.16 142.69 108.344 142.88 108.577 143.02C108.81 143.16 109.077 143.23 109.377 143.23ZM113.454 144L113.454 137.26L114.354 137.26L114.354 144L113.454 144ZM112.284 140.07L112.284 139.25L115.524 139.25L115.524 140.07L112.284 140.07ZM118.43 144.1C117.963 144.1 117.543 143.99 117.17 143.77C116.796 143.55 116.5 143.253 116.28 142.88C116.06 142.5 115.95 142.077 115.95 141.61C115.95 141.15 116.06 140.737 116.28 140.37C116.5 139.997 116.796 139.7 117.17 139.48C117.543 139.26 117.963 139.15 118.43 139.15C118.89 139.15 119.306 139.26 119.68 139.48C120.06 139.693 120.36 139.987 120.58 140.36C120.8 140.733 120.91 141.15 120.91 141.61C120.91 142.077 120.8 142.5 120.58 142.88C120.36 143.253 120.06 143.55 119.68 143.77C119.306 143.99 118.89 144.1 118.43 144.1ZM118.43 143.23C118.73 143.23 118.996 143.16 119.23 143.02C119.463 142.88 119.646 142.69 119.78 142.45C119.913 142.203 119.98 141.923 119.98 141.61C119.98 141.303 119.91 141.03 119.77 140.79C119.636 140.55 119.453 140.363 119.22 140.23C118.993 140.09 118.73 140.02 118.43 140.02C118.13 140.02 117.863 140.09 117.63 140.23C117.396 140.363 117.213 140.55 117.08 140.79C116.946 141.03 116.88 141.303 116.88 141.61C116.88 141.923 116.946 142.203 117.08 142.45C117.213 142.69 117.396 142.88 117.63 143.02C117.863 143.16 118.13 143.23 118.43 143.23Z" fill="#77797D"/>
</svg>
